<?xml version="1.0" standalone="no"?>
<!DOCTYPE svg PUBLIC "-//W3C//DTD SVG 20010904//EN"
 "http://www.w3.org/TR/2001/REC-SVG-20010904/DTD/svg10.dtd">
<svg version="1.0" xmlns="http://www.w3.org/2000/svg"
 width="300.000000pt" height="303.000000pt" viewBox="0 0 300.000000 303.000000"
 preserveAspectRatio="xMidYMid meet">
<metadata>
Created by potrace 1.10, written by Peter Selinger 2001-2011
</metadata>
<g transform="translate(0.000000,303.000000) scale(0.100000,-0.100000)"
fill="#e09f3d" stroke="none">
<path d="M2483 3023 c4 -3 10 -3 14 0 3 4 0 7 -7 7 -7 0 -10 -3 -7 -7z"/>
<path d="M2815 3020 c-4 -6 -11 -8 -16 -5 -5 4 -9 1 -9 -4 0 -14 17 -14 25 -1
3 6 18 10 33 10 19 0 23 -3 14 -9 -11 -6 -10 -10 4 -15 9 -4 22 -2 27 3 7 7
16 7 29 0 10 -5 23 -7 28 -4 6 3 10 2 10 -4 0 -5 -21 -12 -47 -14 -40 -3 -37
-4 20 -5 38 -1 67 2 67 8 0 5 -6 7 -13 4 -8 -3 -14 2 -14 11 0 8 6 15 14 15 7
0 13 5 13 10 0 13 -177 13 -185 0z"/>
<path d="M2638 3013 c7 -3 16 -2 19 1 4 3 -2 6 -13 5 -11 0 -14 -3 -6 -6z"/>
<path d="M908 2993 c7 -3 16 -2 19 1 4 3 -2 6 -13 5 -11 0 -14 -3 -6 -6z"/>
<path d="M743 2983 c4 -3 10 -3 14 0 3 4 0 7 -7 7 -7 0 -10 -3 -7 -7z"/>
<path d="M2818 2983 c7 -3 16 -2 19 1 4 3 -2 6 -13 5 -11 0 -14 -3 -6 -6z"/>
<path d="M588 2973 c12 -2 32 -2 45 0 12 2 2 4 -23 4 -25 0 -35 -2 -22 -4z"/>
<path d="M1358 2973 c6 -2 18 -2 25 0 6 3 1 5 -13 5 -14 0 -19 -2 -12 -5z"/>
<path d="M2648 2973 c7 -3 16 -2 19 1 4 3 -2 6 -13 5 -11 0 -14 -3 -6 -6z"/>
<path d="M1265 2960 c-4 -7 3 -8 22 -4 38 9 42 14 10 14 -14 0 -29 -5 -32 -10z"/>
<path d="M1123 2953 c15 -2 39 -2 55 0 15 2 2 4 -28 4 -30 0 -43 -2 -27 -4z"/>
<path d="M1060 2936 c29 -11 32 -14 15 -18 -13 -4 -7 -6 15 -7 26 0 31 2 20 9
-8 5 -10 10 -5 10 6 0 3 5 -5 10 -8 5 -28 9 -45 9 l-30 -1 35 -12z"/>
<path d="M2573 2893 c4 -3 10 -3 14 0 3 4 0 7 -7 7 -7 0 -10 -3 -7 -7z"/>
<path d="M2734 2888 c-4 -7 -3 -8 4 -4 12 7 16 16 8 16 -3 0 -8 -5 -12 -12z"/>
<path d="M1228 2883 c12 -2 30 -2 40 0 9 3 -1 5 -23 4 -22 0 -30 -2 -17 -4z"/>
<path d="M2453 2883 c9 -2 25 -2 35 0 9 3 1 5 -18 5 -19 0 -27 -2 -17 -5z"/>
<path d="M2510 2880 c0 -7 3 -10 7 -7 3 4 3 10 0 14 -4 3 -7 0 -7 -7z"/>
<path d="M2508 2713 c12 -2 30 -2 40 0 9 3 -1 5 -23 4 -22 0 -30 -2 -17 -4z"/>
<path d="M2693 2703 c4 -3 10 -3 14 0 3 4 0 7 -7 7 -7 0 -10 -3 -7 -7z"/>
<path d="M2828 2703 c7 -3 16 -2 19 1 4 3 -2 6 -13 5 -11 0 -14 -3 -6 -6z"/>
<path d="M2825 2680 c3 -5 15 -10 26 -10 11 0 17 5 14 10 -3 6 -15 10 -26 10
-11 0 -17 -4 -14 -10z"/>
<path d="M2643 2543 c9 -2 23 -2 30 0 6 3 -1 5 -18 5 -16 0 -22 -2 -12 -5z"/>
<path d="M2423 2523 c-32 -6 -63 -50 -63 -89 l0 -34 -487 1 c-269 0 -651 -2
-850 -6 l-363 -5 0 23 c0 38 -20 87 -40 97 -36 19 -88 12 -105 -14 -9 -13 -43
-42 -76 -65 l-60 -41 -189 0 c-167 0 -190 -2 -190 -16 0 -14 20 -15 195 -9
177 7 195 6 195 -9 0 -12 -11 -16 -47 -17 -27 -1 -52 -1 -56 0 -5 1 -6 -3 -2
-9 3 -5 -5 -15 -18 -21 -23 -10 -26 -19 -32 -101 -6 -79 -10 -91 -31 -105 -28
-18 -30 -37 -8 -88 9 -22 15 -63 14 -99 -2 -91 -2 -92 25 -104 33 -15 117 -16
132 -1 8 8 14 1 23 -25 6 -20 27 -48 45 -62 39 -29 48 -48 36 -72 -5 -9 -14
-51 -20 -93 -6 -46 -26 -114 -51 -175 -23 -54 -69 -182 -102 -284 -34 -102
-64 -187 -67 -190 -4 -3 -2 -44 4 -91 l10 -87 -43 -6 c-26 -3 -52 -1 -65 6
l-22 12 25 7 25 7 -25 2 c-14 1 -19 4 -12 7 10 4 10 8 0 21 -8 10 -9 13 -1 9
6 -4 14 -3 17 2 3 5 -1 12 -10 15 -14 5 -14 9 -3 23 12 15 12 16 -3 10 -10 -3
-18 -2 -18 3 0 5 10 12 21 15 16 5 18 9 9 15 -7 5 -20 6 -28 2 -10 -3 -13 -1
-8 6 4 7 14 12 23 12 13 0 14 2 2 17 -12 15 -12 16 1 8 13 -7 13 -6 2 7 -7 8
-9 23 -6 32 6 15 3 15 -19 5 -15 -7 -24 -16 -21 -21 3 -4 10 -5 16 -2 7 4 8 2
4 -5 -5 -8 -12 -9 -20 -2 -8 7 -24 7 -49 -1 -31 -9 -37 -16 -37 -38 0 -24 3
-27 27 -24 l28 4 -27 -11 c-56 -22 -16 -33 49 -14 6 2 14 -3 17 -12 5 -13 0
-14 -31 -9 l-38 7 28 -26 c15 -15 35 -24 43 -21 7 3 14 0 14 -5 0 -7 -11 -9
-25 -7 -14 3 -28 1 -31 -3 -3 -5 -17 -9 -30 -9 -32 0 -27 -22 7 -30 21 -5 22
-7 6 -13 -11 -4 -23 -5 -28 -1 -5 3 -9 -8 -9 -24 l0 -30 132 -7 c121 -7 134
-9 157 -32 22 -20 33 -24 69 -20 24 3 51 12 61 21 16 14 29 14 149 0 73 -8
216 -21 319 -28 104 -8 206 -19 228 -24 22 -5 81 -13 131 -16 77 -6 93 -4 98
9 4 11 -1 15 -17 15 -12 0 -28 4 -35 9 -27 17 82 22 121 6 41 -17 153 -20 193
-5 14 6 65 12 113 14 101 4 178 30 237 79 62 53 161 98 224 102 141 9 226 17
242 21 12 4 22 -5 33 -26 9 -18 14 -34 12 -36 -2 -3 -40 -8 -83 -13 -44 -5
-68 -9 -54 -10 20 -1 22 -3 10 -11 -12 -8 -11 -10 7 -10 12 0 25 -5 29 -12 4
-6 3 -8 -4 -4 -5 3 -12 1 -14 -5 -3 -8 -15 -9 -38 -4 -30 7 -32 9 -15 16 11 4
14 8 7 8 -7 1 -28 -5 -46 -13 -19 -8 -62 -17 -97 -21 -100 -10 -140 -15 -199
-24 l-55 -9 45 -1 c43 -2 44 -2 25 -18 -20 -16 -20 -16 0 -9 44 16 78 19 71 8
-4 -7 -14 -12 -22 -12 -22 0 -17 -20 9 -30 16 -7 5 -8 -35 -4 -34 3 -65 1 -75
-6 -14 -8 -11 -9 18 -4 32 5 35 3 35 -18 0 -18 -5 -24 -20 -23 -11 1 -21 6
-23 12 -2 6 -13 8 -24 6 -16 -5 -17 -8 -7 -14 8 -5 -1 -8 -24 -7 -21 1 -38 5
-38 10 0 4 -6 8 -14 8 -9 0 -13 -8 -10 -22 2 -13 2 -17 -2 -10 -3 6 -10 10
-15 6 -5 -3 1 -14 13 -25 l23 -19 -25 1 c-57 4 -72 0 -62 -18 8 -13 28 -17 93
-20 46 -2 100 -8 119 -13 19 -6 46 -9 60 -9 l25 1 -25 8 c-25 8 -25 8 5 10 17
1 233 3 480 5 248 2 458 4 468 5 15 0 17 15 17 178 l0 179 -50 -3 c-61 -4 -58
12 5 21 l44 7 1 205 1 205 -23 -6 c-13 -3 -53 -14 -90 -25 -37 -11 -70 -16
-73 -11 -3 5 -20 4 -38 -2 -72 -22 -74 -21 -96 43 l-20 59 60 0 c38 0 59 4 59
11 0 8 -19 10 -64 6 -61 -6 -65 -5 -71 16 -4 12 -15 41 -26 64 -24 54 -24 63
2 63 14 0 19 -5 16 -14 -4 -9 4 -13 24 -14 16 0 39 -4 52 -7 l22 -7 -21 20
c-12 11 -44 24 -74 28 -62 10 -62 11 -81 152 l-11 84 35 29 c20 16 41 45 47
65 11 32 14 34 28 21 13 -12 30 -13 76 -7 32 5 63 15 67 22 5 7 9 45 9 84 0
41 7 87 15 107 21 50 19 64 -12 93 -29 26 -28 21 -33 187 0 4 -13 13 -30 18
-57 20 -30 26 103 21 72 -2 130 -2 127 1 -3 3 -50 7 -105 10 -55 2 -107 7
-116 11 -9 4 -40 3 -68 -2 -33 -6 -54 -6 -58 0 -11 19 22 28 77 21 57 -7 147
-7 215 0 22 2 48 4 58 5 10 1 17 10 17 21 0 19 -6 20 -152 15 -112 -4 -149 -3
-138 5 13 10 -18 9 -80 -2 -19 -4 -71 27 -105 60 -42 42 -66 53 -102 46z
m-1809 -45 c8 -13 17 -38 21 -56 7 -32 6 -33 -22 -30 -24 3 -28 7 -25 33 l2
30 -14 -32 c-15 -33 -15 -33 -86 -31 -42 1 -66 4 -58 9 7 5 23 9 36 9 12 0 21
3 20 8 -2 4 11 24 27 44 36 45 76 51 99 16z m1893 -17 c27 -32 30 -40 17 -45
-35 -13 -71 -6 -82 17 l-11 22 0 -22 c-1 -30 -41 -33 -41 -3 0 78 64 95 117
31z m-1220 -96 c0 -9 -8 -10 -31 -4 -16 5 -32 7 -34 4 -2 -2 9 -7 24 -11 l29
-8 -25 -6 c-20 -5 -14 -8 29 -14 37 -5 57 -3 65 5 8 8 3 10 -20 7 -26 -3 -30
-1 -26 14 5 22 59 24 117 3 22 -8 49 -14 60 -14 12 1 5 6 -17 13 -20 6 -39 13
-41 16 -3 3 96 6 220 7 124 1 224 0 222 -2 -2 -2 -31 -7 -64 -10 -33 -4 -62
-9 -64 -11 -11 -10 94 -2 122 9 20 9 67 13 127 12 52 -1 157 -3 233 -3 83 -1
137 -6 137 -12 0 -5 -7 -10 -15 -10 -18 0 -20 -16 -2 -24 6 -2 1 -3 -13 -2
-17 2 -24 9 -22 20 2 13 -7 16 -60 15 -43 0 -57 -3 -43 -9 18 -7 18 -8 3 -14
-10 -3 -26 -9 -35 -13 -10 -4 -22 -8 -28 -9 -5 -1 -14 -3 -20 -4 -5 -1 -53 -2
-105 -2 -60 0 -86 -3 -70 -8 14 -5 18 -9 10 -10 -11 -1 -9 -4 5 -10 27 -11
138 -12 131 -1 -3 5 32 8 80 8 47 0 87 -4 90 -9 3 -4 21 -8 40 -8 43 0 51 -17
28 -61 -9 -18 -17 -55 -18 -82 -2 -41 -6 -51 -26 -63 -25 -13 -25 -13 -2 -14
27 0 28 -16 6 -90 -12 -40 -14 -73 -9 -124 8 -86 17 -110 60 -157 29 -32 34
-46 40 -106 3 -37 15 -96 26 -130 11 -35 17 -67 14 -73 -3 -5 0 -10 9 -10 15
0 22 -29 30 -140 l5 -65 -17 50 c-30 88 -97 172 -150 189 -24 8 -56 82 -38 90
6 3 4 5 -4 3 -8 -1 -41 26 -73 60 -57 60 -161 123 -204 123 -22 0 -55 22 -125
87 -26 24 -54 43 -62 43 -8 0 -27 6 -43 14 -15 7 -41 20 -58 27 -23 11 -31 22
-33 47 -2 19 -12 38 -23 45 -10 6 -19 22 -19 35 0 13 -13 37 -29 53 -31 30
-45 33 -160 34 -65 0 -77 18 -27 39 22 9 40 26 47 43 6 15 15 36 20 45 15 29
10 67 -10 77 -15 8 -24 5 -45 -14 -14 -13 -26 -29 -26 -35 0 -5 -8 -10 -17
-10 -14 0 -15 -2 -5 -9 10 -6 0 -17 -37 -39 -55 -34 -67 -60 -57 -116 9 -46
36 -78 66 -77 140 3 170 -4 170 -40 0 -11 -14 -33 -30 -49 -25 -24 -39 -30
-75 -30 -37 0 -43 3 -38 17 4 11 3 14 -5 9 -7 -4 -12 -14 -12 -22 0 -8 -5 -14
-11 -14 -6 0 -38 -20 -71 -45 -33 -25 -65 -45 -71 -45 -7 0 -37 -15 -67 -32
-56 -33 -175 -79 -184 -72 -4 2 -4 1 -2 -2 3 -4 -17 -23 -43 -44 -63 -50 -118
-115 -131 -156 -6 -18 -20 -36 -32 -40 -59 -18 -138 -125 -153 -207 -4 -21
-12 -40 -18 -44 -6 -4 -8 0 -4 9 3 9 9 53 13 99 3 47 14 100 24 119 24 47 40
109 48 184 7 60 7 61 42 67 l35 6 -32 2 c-18 0 -33 4 -33 7 0 4 16 24 34 45
55 60 79 190 51 269 -9 25 -19 86 -22 135 -4 53 -14 108 -25 133 -10 24 -18
46 -18 48 0 2 16 4 35 4 22 0 38 6 41 15 4 8 12 15 20 15 8 0 14 4 14 9 0 14
-41 0 -47 -15 -3 -8 -18 -14 -34 -14 -28 0 -29 2 -29 45 l0 45 243 3 c133 1
272 3 308 4 47 0 66 -3 66 -12z m1148 -4 c2 -4 -6 -7 -17 -7 -18 1 -22 -5 -24
-37 -3 -34 -1 -37 17 -32 11 4 19 2 19 -4 0 -6 -10 -12 -22 -12 l-23 -2 23 -4
c20 -4 22 -10 22 -63 0 -32 3 -65 6 -73 4 -11 -4 -17 -25 -22 -52 -11 -43 -21
19 -21 32 1 56 3 54 5 -2 2 4 10 14 18 16 12 15 13 -3 6 -17 -5 -16 -2 6 23
15 16 30 39 34 52 4 14 12 21 20 18 7 -2 21 4 31 15 9 10 12 19 7 19 -6 0 -13
6 -16 14 -4 9 3 16 19 19 14 2 22 2 19 -1 -2 -3 4 -11 15 -19 23 -17 26 -36 6
-52 -8 -7 -17 -27 -20 -45 -4 -19 -13 -40 -21 -46 -13 -11 -14 -10 -10 2 4 9
-1 31 -9 49 l-15 34 6 -47 c6 -47 5 -48 -23 -49 -27 0 -27 -1 -7 -9 22 -9 46
-43 37 -53 -5 -5 -29 0 -79 18 -17 6 -17 4 4 -14 13 -12 35 -21 50 -21 17 0
38 -11 54 -28 34 -35 35 -48 3 -26 -25 16 -155 27 -173 15 -5 -3 -23 -27 -40
-53 -24 -35 -28 -48 -17 -52 7 -3 16 -1 19 4 3 5 13 2 23 -6 9 -8 27 -23 39
-32 12 -9 25 -29 28 -43 l6 -26 -83 5 c-46 3 -86 10 -90 16 -4 6 -10 30 -14
53 -7 50 22 172 43 180 8 3 24 -4 37 -16 26 -25 38 -27 30 -6 -4 8 -9 13 -13
11 -4 -3 -13 5 -20 16 -11 18 -11 20 2 15 17 -6 94 18 81 26 -10 6 -91 -13
-111 -26 -28 -18 -29 82 -2 136 15 28 24 67 27 118 4 74 5 76 28 71 14 -2 26
-8 29 -11z m169 -1 c13 -13 5 -12 -69 6 l-60 14 60 -5 c33 -3 64 -10 69 -15z
m-2101 3 c-13 -2 -23 -9 -23 -14 0 -27 -44 -109 -58 -109 -12 0 -11 -4 6 -16
12 -8 23 -25 23 -37 2 -21 2 -21 6 1 4 19 7 21 19 11 8 -6 14 -16 14 -22 0 -6
12 -24 28 -40 23 -25 24 -29 7 -24 -20 7 -20 7 -1 -8 11 -8 34 -15 50 -15 17
0 42 -2 56 -5 17 -3 13 1 -13 13 -23 10 -35 22 -32 30 3 8 5 25 5 38 0 21 4
24 40 24 37 0 40 -2 51 -39 6 -22 9 -55 5 -75 -6 -29 -10 -34 -24 -27 -57 29
-89 31 -133 11 -24 -11 -52 -20 -61 -20 -9 0 -29 -11 -45 -24 -21 -17 -36 -22
-60 -19 -18 3 -30 9 -27 14 3 5 1 9 -5 9 -5 0 -25 16 -45 35 -35 33 -36 36
-32 97 2 35 4 75 5 90 1 17 8 29 21 33 11 3 19 11 17 18 -4 19 38 19 55 0 19
-22 13 -83 -8 -83 -11 0 -12 4 -3 19 12 19 7 51 -9 51 -4 0 -8 -8 -8 -17 -2
-34 -9 -48 -29 -55 -19 -6 -18 -6 3 -7 23 -1 26 -10 16 -60 -4 -17 -13 -31
-21 -31 -8 0 -11 -5 -8 -10 4 -6 10 -8 15 -5 5 3 16 -10 24 -30 8 -19 20 -35
26 -35 6 0 8 -4 5 -10 -3 -5 -2 -10 4 -10 21 0 20 19 -1 34 -12 9 -19 18 -16
21 7 7 60 -16 71 -30 4 -6 16 1 29 18 11 16 30 33 42 37 19 8 19 9 -6 11 -16
1 -33 2 -39 3 -17 2 -39 38 -39 63 0 17 6 23 23 24 15 1 10 4 -15 11 -42 11
-45 22 -23 65 8 15 17 45 20 66 l6 37 57 -1 c31 -1 47 -4 35 -6z m137 -50 c0
-32 1 -69 3 -83 2 -21 -2 -25 -25 -25 -27 -1 -28 1 -28 55 0 30 -4 62 -10 70
-12 19 6 40 36 40 22 0 24 -4 24 -57z m-92 25 c7 -7 12 -39 12 -74 0 -61 -1
-63 -26 -60 -14 2 -35 12 -46 24 -19 19 -20 24 -8 54 14 34 38 68 50 68 3 0
11 -5 18 -12z m1705 5 c-7 -2 -19 -2 -25 0 -7 3 -2 5 12 5 14 0 19 -2 13 -5z
m267 -23 c8 -16 8 -18 -5 -14 -8 4 -15 10 -15 15 0 4 -7 6 -15 3 -8 -4 -15
-12 -15 -20 0 -14 10 -17 47 -15 31 3 40 -35 15 -62 -11 -12 -23 -32 -26 -44
-4 -11 -18 -28 -31 -37 l-25 -16 6 92 c3 51 7 98 9 103 5 19 45 14 55 -5z
m-204 -19 c-4 -5 3 -7 14 -4 14 4 20 0 20 -12 0 -12 -5 -15 -16 -11 -9 3 -24
6 -35 6 -17 0 -18 2 -7 15 14 16 33 21 24 6z m299 -1 c3 -5 -1 -10 -9 -10 -9
0 -16 5 -16 10 0 6 4 10 9 10 6 0 13 -4 16 -10z m77 -10 c-22 -21 -30 -66 -12
-72 5 -1 -3 -13 -17 -26 -20 -18 -24 -19 -17 -5 4 10 8 34 9 54 1 40 19 69 43
69 12 0 11 -5 -6 -20z m-634 2 c7 -5 -5 -7 -28 -6 -23 1 -44 4 -47 8 -9 9 60
7 75 -2z m688 -20 c13 -8 25 -182 12 -182 -4 0 -7 -4 -5 -8 3 -14 -59 -62 -79
-62 -18 1 -18 1 -1 11 9 5 17 19 17 29 0 19 14 33 38 36 21 4 28 14 9 14 -9 0
-19 5 -23 11 -8 14 -23 141 -17 152 5 9 35 9 49 -1z m-1292 -48 c4 -9 4 -19 2
-21 -8 -8 -26 8 -26 23 0 19 16 18 24 -2z m-34 -46 c0 -10 -10 -27 -22 -39
l-23 -23 27 17 c21 13 26 14 22 3 -3 -8 -31 -22 -62 -33 -50 -16 -57 -22 -60
-47 -2 -16 1 -33 6 -38 6 -6 8 1 6 19 -4 24 -3 25 5 8 8 -17 10 -18 10 -2 1
19 17 23 23 5 3 -8 30 -13 74 -14 38 -1 81 -3 95 -3 29 -1 75 -44 64 -60 -3
-6 5 -25 20 -42 22 -27 25 -38 20 -78 -3 -25 -2 -40 1 -33 5 10 12 8 31 -10
17 -16 22 -18 18 -6 -6 15 -3 16 25 8 29 -8 64 -39 55 -48 -8 -9 -85 11 -96
24 -6 8 -16 14 -22 14 -5 0 -2 -9 8 -20 10 -11 13 -20 7 -20 -5 0 -22 15 -37
32 l-28 33 7 -33 c8 -35 5 -38 -26 -21 -14 8 -23 8 -31 0 -6 -6 -22 -10 -37
-10 -20 1 -21 2 -5 6 26 7 55 33 55 50 0 8 5 11 11 8 6 -4 8 -13 5 -21 -3 -8
-1 -14 4 -14 14 0 12 38 -4 90 -14 43 -15 43 -15 13 -1 -17 -5 -34 -10 -38
-12 -7 -25 31 -16 46 8 12 -13 68 -26 70 -5 1 -13 3 -19 4 -5 1 -16 3 -22 4
-9 1 -8 4 2 11 8 5 10 10 5 10 -6 0 -17 -6 -24 -12 -11 -11 -12 -10 -7 0 8 13
-20 10 -69 -8 -43 -16 -85 21 -85 75 0 39 16 63 59 84 23 12 43 32 51 51 9 23
15 28 21 18 5 -7 9 -21 9 -30z m-1042 -3 c-3 -3 -9 2 -12 12 -6 14 -5 15 5 6
7 -7 10 -15 7 -18z m192 -15 c0 -27 -25 -25 -44 2 -12 16 -13 24 -4 29 18 11
48 -9 48 -31z m-181 -36 c47 -69 43 -77 -19 -41 -33 18 -40 27 -40 53 0 58 14
55 59 -12z m2300 0 c2 -18 -78 -69 -90 -57 -6 6 -3 16 11 28 11 10 20 23 20
28 0 6 10 21 22 35 l23 24 6 -24 c4 -13 7 -28 8 -34z m-2431 -65 c13 -16 19
-29 13 -29 -6 0 -4 -16 5 -42 9 -24 13 -57 10 -75 -6 -41 21 -67 64 -61 16 3
30 2 30 -2 0 -18 -30 -30 -78 -30 -49 0 -53 2 -41 16 11 14 10 16 -11 12 -23
-3 -24 -1 -23 62 1 36 -4 83 -10 105 -14 53 -14 59 -2 67 15 11 18 10 43 -23z
m2547 22 c3 -5 0 -13 -6 -17 -8 -5 -8 -9 1 -14 9 -6 9 -13 1 -28 -6 -11 -11
-57 -11 -100 0 -75 -1 -80 -20 -75 -16 4 -19 2 -14 -11 5 -13 -2 -16 -43 -16
-44 0 -73 12 -73 30 0 4 14 5 30 2 20 -3 37 2 49 12 10 9 21 13 24 9 4 -3 2 8
-4 26 -8 24 -8 43 1 74 6 24 10 47 8 52 -3 11 33 64 44 65 4 0 9 -4 13 -9z
m-143 -31 c-25 -21 -22 -39 6 -41 9 0 4 -5 -13 -10 -22 -6 -33 -4 -47 8 -14
13 -16 18 -6 25 7 4 9 8 3 8 -11 1 54 27 70 28 6 1 0 -7 -13 -18z m-2034 -2
l24 0 -28 -29 c-15 -16 -23 -29 -16 -29 6 0 17 9 26 21 25 36 48 20 68 -46 30
-96 7 -239 -42 -265 -23 -12 -50 -55 -56 -88 -3 -14 -7 -29 -10 -33 -8 -13
-32 -99 -28 -99 2 0 11 15 20 33 28 52 27 17 -1 -64 -34 -97 -76 -242 -71
-247 2 -2 12 20 21 48 9 28 19 50 21 47 6 -6 -24 -147 -42 -197 -8 -25 -20
-83 -24 -129 -5 -46 -11 -86 -14 -88 -3 -3 -41 -6 -84 -7 -84 -1 -92 -16 -10
-16 45 0 47 -1 39 -22 -4 -13 -19 -26 -32 -29 -24 -7 -24 -7 -1 -8 15 -1 22
-7 22 -21 0 -11 -6 -19 -12 -17 -7 1 -12 -4 -11 -10 2 -8 -8 -13 -26 -13 -17
0 -33 -4 -36 -10 -3 -5 -15 -10 -25 -10 -16 0 -19 11 -25 84 -7 82 -1 131 14
121 5 -2 11 28 15 67 4 40 18 97 32 132 15 34 39 102 54 151 15 50 42 124 59
167 21 52 31 93 31 130 0 29 5 70 10 90 13 45 1 73 -33 82 -41 10 -61 97 -42
184 7 33 19 39 45 22 13 -8 13 -10 -2 -10 -10 0 -23 -10 -29 -22 -9 -19 -9
-21 2 -10 22 20 30 14 24 -20 l-6 -32 22 20 c12 10 19 13 14 5 -5 -9 1 -7 19
4 26 17 63 14 51 -5 -4 -6 1 -7 12 -3 16 6 16 4 -2 -17 l-20 -23 33 18 c17 11
32 24 32 29 0 6 5 5 11 -1 6 -6 17 -9 25 -6 9 3 3 19 -24 54 -20 27 -41 49
-47 50 -71 5 -143 -4 -168 -22 l-29 -21 12 24 c18 34 51 58 81 58 15 0 37 9
50 20 17 15 32 19 54 15 17 -4 41 -6 53 -7z m-258 -94 c0 -18 5 -36 10 -39 19
-12 10 -33 -18 -43 -40 -14 -73 13 -60 48 5 14 7 34 4 46 -5 20 -2 22 29 21
33 -1 35 -3 35 -33z m2345 -14 c0 -62 -16 -82 -56 -68 -29 10 -38 31 -19 43 6
3 10 21 10 39 0 29 3 32 33 32 31 0 32 -1 32 -46z m-1298 33 c-4 -3 -10 -3
-14 0 -3 4 0 7 7 7 7 0 10 -3 7 -7z m-940 -10 c-4 -3 -10 -3 -14 0 -3 4 0 7 7
7 7 0 10 -3 7 -7z m2102 -2 c22 -14 41 -82 35 -119 -6 -29 -10 -33 -31 -29
-13 2 -26 0 -29 -4 -3 -5 6 -9 20 -9 33 0 34 -23 1 -44 -30 -20 -55 -22 -37
-4 7 7 12 19 12 27 0 11 -5 10 -22 -5 l-21 -19 6 32 c5 24 0 40 -19 68 -30 44
-24 56 17 33 18 -11 27 -13 24 -5 -4 6 1 3 9 -7 9 -11 16 -27 17 -35 0 -9 5
-3 9 13 6 18 5 36 -1 48 -11 21 1 24 20 6 11 -10 10 -8 0 10 -8 12 -21 22 -29
22 -13 0 -13 2 -1 9 11 7 10 10 -5 14 -12 3 -13 5 -4 6 8 0 21 -3 29 -8z m-12
-88 c-4 -3 -7 0 -7 7 0 7 3 10 7 7 3 -4 3 -10 0 -14z m-77 -28 c25 -30 3 -25
-26 6 -22 24 -24 29 -8 21 11 -6 27 -18 34 -27z m-970 -21 c0 -12 -7 -27 -15
-34 -13 -11 -15 -7 -15 27 0 22 3 43 7 46 9 10 23 -13 23 -39z m-190 -20 c-8
-8 -23 -20 -34 -25 -15 -7 -13 -3 7 15 31 29 47 35 27 10z m120 12 c0 -3 -5
-8 -12 -12 -7 -4 -8 -3 -4 4 7 12 16 16 16 8z m-42 -36 c-13 -20 -68 -29 -68
-10 0 13 31 29 58 30 20 0 21 -2 10 -20z m42 -11 c-17 -14 -26 -17 -28 -9 -5
14 16 30 38 30 10 -1 7 -7 -10 -21z m376 -20 c4 -8 1 -8 -14 0 -12 6 -24 16
-28 22 -4 8 -1 8 14 0 12 -6 24 -16 28 -22z m632 15 c31 -6 31 -6 16 -37 -11
-19 -12 -32 -5 -36 5 -4 19 -27 31 -51 l21 -45 -6 60 -5 60 15 -45 c8 -25 13
-56 10 -70 -3 -14 1 -53 8 -87 14 -63 14 -63 -9 -63 -13 0 -26 5 -29 10 -9 15
-25 2 -19 -14 4 -10 17 -12 44 -9 39 5 40 5 59 -39 10 -24 22 -59 26 -77 7
-32 6 -33 -27 -31 -52 3 -58 -2 -9 -9 43 -6 45 -8 62 -58 l18 -53 -22 -1 c-12
-1 -31 -3 -42 -4 -11 -1 -32 -2 -47 -3 -16 -1 -28 -7 -28 -12 0 -6 10 -8 23
-5 50 13 127 10 132 -4 3 -8 4 -15 2 -17 -9 -9 -87 -6 -99 4 -11 8 -17 7 -25
-7 -10 -16 -8 -17 15 -13 25 5 26 4 10 -12 -12 -11 -25 -15 -43 -10 -27 7 -33
19 -12 27 7 3 4 6 -7 6 -12 1 -16 6 -12 16 3 8 2 15 -3 15 -9 0 -27 57 -36
115 -5 39 -5 39 16 -13 11 -29 22 -52 24 -50 5 5 -20 95 -53 194 -16 49 -32
103 -36 119 l-6 30 17 -32 c9 -18 21 -33 25 -33 5 0 7 3 5 8 -2 4 -15 41 -27
82 -25 77 -45 114 -86 155 -13 13 -24 29 -24 35 0 11 89 14 138 4z m-1110 -50
c21 -6 19 -9 -24 -47 -44 -39 -84 -104 -83 -137 0 -8 11 6 24 32 30 57 84 102
153 128 63 24 102 25 168 5 68 -20 130 -68 164 -129 33 -56 40 -44 11 19 -10
23 -39 59 -65 82 l-47 41 29 7 c89 19 244 -62 312 -163 21 -30 30 -38 25 -22
-4 14 -18 40 -32 58 -31 41 -15 41 56 1 134 -77 230 -237 231 -386 l0 -42 -37
6 c-24 4 -34 3 -30 -5 5 -6 -1 -8 -15 -4 -14 3 -19 2 -14 -6 5 -8 -2 -12 -18
-12 -30 0 -35 20 -7 27 28 7 42 54 30 98 -10 35 -31 51 -23 18 3 -10 -6 -30
-18 -45 -18 -21 -29 -26 -50 -21 -15 3 -25 9 -22 14 3 5 -2 6 -10 3 -16 -6
-20 -21 -17 -56 1 -11 -7 -18 -26 -21 -25 -4 -25 -4 4 -3 18 0 35 -3 39 -7 4
-4 -23 -7 -59 -7 -38 0 -67 4 -67 10 0 15 -30 12 -36 -3 -3 -10 -31 -14 -96
-15 -130 -3 -123 -12 9 -12 l110 0 1 -35 c1 -32 -1 -34 -18 -25 -28 15 -86 12
-100 -5 -11 -13 -10 -14 5 -9 15 6 16 4 6 -14 -7 -13 -17 -19 -26 -16 -8 4
-13 10 -10 14 3 5 -9 3 -26 -3 -17 -7 -36 -22 -42 -35 -10 -22 -44 -27 -40 -5
3 13 -66 9 -94 -6 -30 -15 -84 -14 -126 4 -49 20 -73 19 -96 -6 l-19 -21 -13
24 c-6 12 -17 26 -23 30 -17 12 -64 9 -68 -4 -2 -6 -10 -8 -16 -4 -15 9 -16
46 -2 46 6 0 10 5 10 11 0 6 -19 9 -47 7 -38 -2 -50 -8 -59 -25 -15 -32 -25
-17 -18 28 4 25 2 44 -6 54 -11 13 -1 15 76 17 49 1 109 3 134 5 63 3 91 -4
84 -22 -4 -9 -21 -16 -43 -17 l-36 -1 35 -4 c19 -3 46 -13 61 -24 30 -21 54
-24 65 -8 6 11 50 8 106 -6 34 -9 72 26 65 61 -3 20 0 24 18 24 13 0 26 8 30
18 5 14 4 15 -6 5 -22 -22 -37 -15 -103 55 l-65 67 -50 -50 c-28 -27 -54 -57
-57 -67 -4 -15 -17 -18 -67 -18 -112 0 -316 -13 -312 -20 2 -3 -14 -11 -36
-17 -43 -11 -50 -2 -24 33 14 19 20 56 9 66 -3 3 -21 2 -40 -2 -30 -7 -37 -5
-55 18 -11 15 -18 34 -16 44 3 10 1 18 -3 18 -14 0 -32 -68 -25 -91 5 -13 2
-25 -6 -31 -11 -7 -9 -8 4 -4 33 11 54 -11 62 -61 3 -26 13 -58 21 -71 14 -21
16 -21 40 -5 l26 16 -5 -32 c-4 -22 -1 -34 9 -38 8 -3 14 -11 14 -18 0 -14
-144 -31 -172 -20 -9 4 -29 34 -44 68 -27 57 -29 72 -29 177 0 112 1 117 37
193 44 91 119 172 196 211 70 35 77 33 42 -16 -16 -22 -30 -48 -30 -56 0 -9
13 4 29 29 47 73 125 130 211 153 63 17 76 18 108 10z m-620 -420 c2 -21 -7
-43 -28 -73 -17 -23 -34 -40 -37 -37 -6 6 -62 -63 -63 -78 0 -5 9 -1 21 10
l21 19 -7 -40 c-8 -46 -60 -142 -90 -167 -11 -10 -15 -17 -8 -18 24 0 79 59
108 116 16 31 31 52 33 45 9 -26 -120 -201 -149 -201 -6 0 -8 4 -5 9 4 5 2 11
-4 13 -15 5 -14 121 0 149 7 13 27 42 45 64 36 44 73 111 56 101 -30 -19 21
76 55 103 34 27 48 23 52 -15z m1622 9 c28 -27 73 -112 51 -98 -15 9 -14 -1 5
-37 l16 -30 -47 32 c-52 36 -85 82 -85 121 0 47 17 50 60 12z m552 -133 c-13
-14 -30 -20 -53 -19 -19 2 -43 -2 -54 -9 -19 -11 -19 -11 5 -13 21 -1 19 -3
-10 -10 -36 -8 -70 -4 -70 10 0 11 98 44 110 36 5 -3 10 -2 10 4 0 8 18 14 68
20 8 0 6 -7 -6 -19z m-147 -10 c-3 -5 -16 -10 -28 -9 -21 0 -21 1 -2 9 28 12
37 12 30 0z m180 -20 c-3 -5 -12 -10 -18 -10 -7 0 -6 4 3 10 19 12 23 12 15 0z
m-81 -8 c3 -5 -1 -9 -9 -9 -8 0 -15 4 -15 9 0 4 4 8 9 8 6 0 12 -4 15 -8z
m-416 -52 c9 0 8 7 -4 25 -9 14 -12 25 -7 25 9 0 65 -83 76 -113 6 -15 3 -17
-16 -12 -16 5 -18 4 -8 -4 12 -8 10 -11 -11 -16 -32 -8 -44 -2 -51 26 -5 17
-2 20 14 16 10 -3 17 -1 13 4 -3 5 1 9 9 9 31 0 12 28 -23 34 -31 5 -39 11
-43 33 l-5 28 22 -27 c12 -16 27 -28 34 -28z m-210 33 c-10 -2 -18 -8 -18 -13
0 -5 -6 -8 -12 -6 -7 1 -10 1 -5 -1 4 -3 5 -8 3 -12 -3 -4 7 -8 21 -9 15 -1
29 -5 32 -8 7 -7 -20 -24 -39 -24 -10 0 -11 3 -3 8 6 4 -8 8 -32 9 -30 1 -45
-3 -49 -13 -3 -8 0 -14 6 -14 6 0 20 -7 30 -17 10 -9 18 -11 18 -5 0 6 -6 12
-12 15 -7 2 6 5 30 5 23 0 42 -1 42 -3 0 -19 -15 -32 -33 -28 -21 4 -21 4 -4
-10 18 -15 7 -34 -12 -22 -5 3 -12 1 -16 -5 -3 -5 1 -10 10 -10 24 0 7 -20
-18 -21 -20 0 -21 -1 -3 -8 26 -10 11 -17 -51 -25 -41 -5 -53 -3 -53 8 0 8 9
12 23 11 12 -1 14 0 5 2 -9 2 -19 12 -21 21 -3 12 -8 8 -18 -15 -7 -18 -19
-33 -26 -33 -7 0 -13 -5 -13 -10 0 -7 -6 -7 -19 0 -11 5 -26 10 -33 9 -7 0 -4
-4 7 -8 16 -7 12 -10 -22 -15 -24 -4 -43 -12 -43 -17 0 -5 -23 -9 -50 -9 -36
0 -52 -4 -56 -15 -4 -10 -19 -15 -43 -14 -32 1 -33 2 -11 8 35 11 90 62 90 84
0 10 5 15 11 11 6 -3 9 -14 6 -24 -4 -15 0 -18 27 -14 34 4 70 39 62 61 -6 16
-1 16 25 3 26 -14 24 -30 -3 -31 -23 -2 -23 -2 0 -6 28 -5 62 22 62 49 0 11 7
27 16 35 8 9 13 24 11 34 -3 12 0 19 9 19 8 0 14 -4 14 -10 0 -21 22 -9 38 20
12 23 23 30 38 27 15 -3 21 1 20 12 -2 8 -9 17 -16 19 -7 3 -10 0 -6 -7 4 -6
1 -11 -8 -11 -10 0 -13 6 -10 15 5 11 21 15 63 14 31 -1 48 -3 39 -6z m32 -13
c0 -11 -7 -20 -15 -20 -13 0 -13 3 -3 20 7 11 14 20 15 20 2 0 3 -9 3 -20z
m577 3 c-9 -2 -15 -9 -12 -14 4 -5 -17 -9 -46 -9 -61 0 -60 7 2 19 47 9 87 12
56 4z m43 -23 c-15 -11 -21 -23 -17 -34 4 -11 1 -16 -11 -16 -13 0 -14 -2 -3
-9 15 -10 -50 -19 -84 -12 -20 4 -20 4 0 12 19 7 19 8 -5 15 -24 7 -23 8 10
19 28 9 37 9 48 -2 7 -7 19 -13 25 -12 8 0 7 3 -1 6 -10 4 -6 13 14 34 15 15
31 26 37 22 5 -3 -1 -14 -13 -23z m-180 3 c0 -5 -19 -9 -43 -10 -38 -1 -39 0
-12 7 41 11 55 11 55 3z m-163 -20 c-4 -3 -10 -3 -14 0 -3 4 0 7 7 7 7 0 10
-3 7 -7z m-180 -20 c-4 -3 -7 0 -7 7 0 7 3 10 7 7 3 -4 3 -10 0 -14z m70 10
c-4 -3 -10 -3 -14 0 -3 4 0 7 7 7 7 0 10 -3 7 -7z m200 0 c-4 -3 -10 -3 -14 0
-3 4 0 7 7 7 7 0 10 -3 7 -7z m270 0 c-4 -3 -10 -3 -14 0 -3 4 0 7 7 7 7 0 10
-3 7 -7z m-299 -9 c18 -5 20 -9 11 -20 -6 -8 -8 -14 -3 -14 14 0 36 16 35 26
-1 5 6 9 14 8 49 -3 55 -5 55 -24 0 -16 -7 -20 -32 -21 -32 -2 -32 -2 7 -9 40
-7 40 -7 6 -9 -29 -1 -33 -4 -29 -24 4 -21 1 -22 -31 -19 -26 2 -32 1 -22 -6
10 -7 2 -10 -30 -8 -43 2 -44 3 -47 40 l-3 38 58 -6 58 -5 -60 13 c-47 11 -53
14 -30 16 l30 3 -27 4 c-16 2 -28 9 -28 14 0 10 34 12 68 3z m-179 -86 c18
-21 28 -38 22 -38 -12 0 -81 89 -80 105 0 6 6 1 12 -9 7 -11 27 -37 46 -58z
m479 37 c0 -24 -8 -29 -37 -26 -7 2 -10 -2 -7 -7 4 -7 -4 -8 -21 -3 -20 5 -32
3 -41 -8 -8 -9 -11 -11 -8 -4 4 6 -2 16 -11 22 -14 8 -3 10 45 11 35 0 61 4
58 9 -8 12 4 42 14 36 4 -2 8 -16 8 -30z m-50 -2 c-10 -2 -26 -2 -35 0 -10 3
-2 5 17 5 19 0 27 -2 18 -5z m-2108 -7 c0 -2 3 -12 7 -22 4 -11 3 -15 -5 -10
-6 3 -13 2 -17 -4 -3 -5 2 -10 12 -10 10 0 47 -32 81 -70 60 -66 149 -130 181
-130 8 0 27 -14 44 -31 16 -17 52 -42 81 -55 l51 -24 -50 6 c-27 4 -56 12 -64
18 -11 8 -13 8 -7 -1 4 -7 2 -13 -3 -13 -6 0 -11 4 -11 9 0 16 -330 43 -354
29 -6 -4 14 -8 44 -9 30 0 75 -4 100 -8 43 -8 43 -9 10 -10 -19 0 -100 4 -180
10 -80 6 -155 11 -167 11 -26 1 -21 12 17 44 14 12 40 50 58 85 36 69 172 215
172 185z m1671 -118 c9 -17 4 -18 -58 -16 l-68 1 60 7 c42 4 55 8 42 14 -20
10 -143 3 -172 -9 -18 -8 -19 -7 -6 8 9 12 30 17 70 18 62 0 117 16 71 20 -14
1 -36 3 -50 4 -14 2 -33 -1 -42 -6 -23 -12 -23 -8 3 41 l21 40 60 -52 c33 -29
64 -60 69 -70z m99 92 c0 -24 -4 -30 -23 -30 -12 0 -28 9 -35 20 -11 17 -10
20 7 20 11 0 23 5 26 10 12 20 25 9 25 -20z m-1423 -25 c-7 -17 21 -51 49 -59
16 -5 24 0 34 21 l14 28 4 -28 c2 -16 11 -31 20 -34 9 -3 25 -14 35 -25 26
-26 44 -22 56 12 11 33 26 41 18 10 -3 -11 -1 -18 3 -15 5 3 12 0 16 -6 3 -6
19 -9 34 -5 15 3 31 2 35 -2 9 -9 205 -10 211 0 3 4 18 5 33 2 16 -4 32 -1 35
5 4 6 11 9 16 6 4 -3 6 5 2 17 -3 14 -2 19 6 14 17 -10 15 -46 -2 -46 -8 0
-16 -5 -18 -12 -2 -6 -18 -11 -36 -11 -36 0 -38 -4 -16 -35 10 -14 25 -22 45
-22 37 0 29 -20 -9 -21 -24 0 -25 -1 -7 -9 25 -11 23 -11 -53 -13 -34 -1 -62
1 -62 6 0 4 8 7 18 7 9 1 31 7 47 15 l30 15 -40 -6 c-22 -4 -55 -6 -72 -5 -38
2 -44 -13 -10 -24 20 -6 20 -8 3 -12 -10 -3 -28 -14 -40 -25 -12 -12 -16 -19
-11 -16 6 3 28 2 50 -2 l40 -8 -53 -1 c-52 -1 -82 13 -82 38 0 6 -4 11 -10 11
-5 0 -7 -7 -4 -15 7 -18 -10 -20 -28 -2 -7 6 -20 13 -28 15 -8 2 -26 17 -40
33 -38 43 -45 35 -17 -16 l26 -45 -40 0 c-28 0 -39 4 -39 15 0 8 -7 15 -15 15
-8 0 -15 -4 -15 -10 0 -5 -5 -10 -11 -10 -5 0 -7 5 -4 10 4 6 -7 10 -24 10
-17 0 -31 5 -31 10 0 6 -9 10 -20 10 -24 0 -112 78 -104 91 3 5 1 9 -5 9 -9 0
-41 50 -41 64 0 2 8 7 18 9 13 4 12 5 -4 6 -31 1 -40 31 -11 31 13 0 28 -5 34
-11 8 -8 17 -5 32 10 24 24 46 28 38 6z m1630 -2 c-4 -3 -10 -3 -14 0 -3 4 0
7 7 7 7 0 10 -3 7 -7z m-1759 -20 c2 -7 -5 -14 -15 -14 -15 -1 -16 -2 -1 -6 9
-2 21 -16 26 -31 6 -15 13 -35 17 -46 8 -17 7 -17 -25 -1 -23 12 -29 19 -20
25 8 5 2 10 -19 15 -30 6 -45 19 -46 40 -1 6 -5 9 -10 8 -6 0 -16 5 -23 13
-12 13 -5 15 49 12 39 -2 64 -8 67 -15z m1885 10 c-7 -2 -19 -2 -25 0 -7 3 -2
5 12 5 14 0 19 -2 13 -5z m64 0 c-4 -3 -10 -3 -14 0 -3 4 0 7 7 7 7 0 10 -3 7
-7z m40 1 c-3 -3 -12 -4 -19 -1 -8 3 -5 6 6 6 11 1 17 -2 13 -5z m-291 -11
c-15 -4 -16 -7 -5 -14 10 -7 6 -8 -13 -3 -19 4 -29 1 -36 -11 -6 -12 -12 -14
-16 -7 -4 6 -14 9 -24 6 -13 -5 -14 -4 -3 4 12 9 12 11 0 15 -8 2 -5 3 6 1 11
-1 29 2 40 6 11 5 31 8 45 8 19 0 20 -2 6 -5z m-2621 -13 c3 -5 4 -10 1 -10
-3 0 -8 5 -11 10 -3 6 -4 10 -1 10 3 0 8 -4 11 -10z m35 6 c0 -3 -4 -8 -10
-11 -5 -3 -10 -1 -10 4 0 6 5 11 10 11 6 0 10 -2 10 -4z m2428 -3 c-10 -2 -26
-2 -35 0 -10 3 -2 5 17 5 19 0 27 -2 18 -5z m-21 -20 c-4 -3 -10 -3 -14 0 -3
4 0 7 7 7 7 0 10 -3 7 -7z m-351 -18 c-23 -17 -40 -20 -31 -5 3 6 1 10 -4 10
-6 0 -11 -4 -11 -10 0 -5 -7 -10 -15 -10 -8 0 -15 7 -15 15 0 11 12 15 48 15
43 -1 46 -2 28 -15z m-1659 -7 c-2 -7 -7 -24 -11 -38 l-7 -25 20 24 c23 25 28
13 9 -22 -10 -20 -10 -21 5 -9 9 7 19 27 22 43 4 16 13 29 21 29 20 0 18 -12
-9 -51 -32 -48 -71 -48 -75 -1 -4 40 3 62 19 62 6 0 9 -6 6 -12z m1539 -5
c-22 -4 -26 -7 -15 -14 9 -5 10 -9 2 -9 -6 0 -14 4 -17 9 -3 5 -16 7 -29 4
-18 -4 -19 -3 -7 6 8 6 33 10 55 9 33 -1 35 -2 11 -5z m194 -7 c0 -3 -5 -8
-12 -12 -7 -4 -8 -3 -4 4 7 12 16 16 16 8z m673 -3 c-7 -2 -19 -2 -25 0 -7 3
-2 5 12 5 14 0 19 -2 13 -5z m-123 -17 c0 -13 -58 -31 -68 -21 -3 3 3 5 14 5
18 1 18 1 2 11 -12 7 -24 6 -38 -1 -11 -6 -20 -8 -20 -4 0 3 -6 1 -14 -5 -10
-9 -15 -8 -19 3 -8 20 7 24 81 25 46 1 62 -2 62 -13z m105 -6 c34 -9 26 -12
-25 -11 -29 0 -31 -1 -15 -8 15 -7 16 -10 5 -12 -8 -1 5 -5 30 -9 l45 -8 -52
3 c-43 1 -52 -2 -56 -17 -3 -10 2 -22 11 -28 14 -8 13 -9 -6 -10 -23 0 -24 2
-17 53 9 63 12 70 34 61 9 -3 30 -10 46 -14z m-325 -32 c0 -4 5 -8 10 -8 7 0
7 6 0 19 -14 26 -13 38 2 23 15 -15 32 -16 23 -2 -3 6 -1 10 4 10 12 0 13 -6
5 -37 -4 -13 -13 -23 -22 -23 -21 0 -52 29 -52 49 1 13 3 13 15 -3 8 -11 15
-23 15 -28z m135 12 c-3 -5 -14 -10 -23 -10 -15 0 -15 2 -2 10 20 13 33 13 25
0z m-40 -19 c3 -5 1 -12 -5 -16 -5 -3 -10 1 -10 9 0 18 6 21 15 7z m335 -11
c0 -5 -10 -10 -22 -9 -22 0 -22 1 -3 9 11 5 21 9 23 9 1 1 2 -3 2 -9z m-2853
-6 c-3 -3 -12 -4 -19 -1 -8 3 -5 6 6 6 11 1 17 -2 13 -5z m1834 -14 c-13 -11
-36 -20 -52 -20 -16 0 -29 -4 -29 -8 0 -13 -68 -8 -82 6 -13 13 -52 -3 -43
-19 4 -5 -1 -9 -9 -9 -13 0 -14 4 -5 24 10 22 20 25 88 31 42 3 87 7 101 9 54
6 55 6 31 -14z m716 4 c-3 -3 -12 -4 -19 -1 -8 3 -5 6 6 6 11 1 17 -2 13 -5z
m-87 -92 c66 -54 107 -65 150 -42 15 8 19 7 17 -8 -2 -35 -115 -26 -153 13 -8
8 -21 12 -28 9 -8 -3 -17 -1 -21 5 -3 6 -2 11 4 11 20 0 -1 30 -25 36 -13 3
-24 12 -24 20 0 8 -7 14 -16 14 -8 0 -12 -4 -9 -10 3 -5 2 -10 -4 -10 -5 0
-13 5 -16 10 -3 6 -21 11 -38 11 -28 1 -26 3 18 14 44 11 52 11 65 -4 8 -10
44 -40 80 -69z m137 81 c-4 -3 -10 -3 -14 0 -3 4 0 7 7 7 7 0 10 -3 7 -7z
m-2307 -17 c0 -2 -11 -6 -25 -8 -14 -3 -25 -1 -25 3 0 5 11 9 25 9 14 0 25 -2
25 -4z m-169 -27 c9 -6 -30 -7 -101 -3 -63 4 -117 8 -119 11 -10 8 207 0 220
-8z m1399 -9 c-8 -5 -19 -10 -25 -10 -5 0 -3 5 5 10 8 5 20 10 25 10 6 0 3 -5
-5 -10z m200 0 c-26 -15 -140 -24 -140 -11 0 6 16 10 40 9 22 -1 43 2 47 5 3
4 20 7 37 7 23 -1 27 -3 16 -10z m947 -7 c-4 -3 -7 0 -7 7 0 7 3 10 7 7 3 -4
3 -10 0 -14z m-282 -3 c4 -6 -6 -10 -22 -10 -22 0 -25 2 -13 10 19 12 27 12
35 0z m-962 -7 c-7 -2 -19 -2 -25 0 -7 3 -2 5 12 5 14 0 19 -2 13 -5z m34 0
c-4 -3 -10 -3 -14 0 -3 4 0 7 7 7 7 0 10 -3 7 -7z m738 -3 c19 -8 19 -9 1 -9
-16 -1 -17 -3 -5 -18 12 -14 12 -16 -1 -11 -8 3 -14 13 -13 22 0 12 -4 15 -14
12 -8 -3 -19 -6 -25 -6 -6 0 -1 -9 12 -20 15 -13 18 -20 9 -20 -12 0 -12 -2 0
-9 7 -5 11 -13 7 -19 -3 -6 2 -13 11 -15 10 -3 -2 -3 -26 -1 -50 5 -68 14 -28
14 33 0 37 18 5 18 -13 1 -50 8 -83 16 l-60 15 57 -1 c31 -1 55 -4 54 -7 -2
-3 9 -6 25 -7 38 -1 37 4 -3 19 l-33 11 40 12 c48 15 45 15 70 4z m502 3 c-4
-3 -10 -3 -14 0 -3 4 0 7 7 7 7 0 10 -3 7 -7z m-412 -23 c-3 -5 -11 -10 -16
-10 -6 0 -7 5 -4 10 3 6 11 10 16 10 6 0 7 -4 4 -10z m125 2 c0 -5 -11 -7 -24
-5 -13 3 -32 0 -43 -7 -12 -8 -13 -10 -2 -7 9 3 22 1 30 -5 10 -7 2 -8 -25 -4
-43 6 -56 14 -39 24 17 11 103 14 103 4z m250 4 c0 -3 -4 -8 -10 -11 -5 -3
-10 -1 -10 4 0 6 5 11 10 11 6 0 10 -2 10 -4z m-433 -23 c-4 -3 -10 -3 -14 0
-3 4 0 7 7 7 7 0 10 -3 7 -7z m-202 -23 c26 10 39 2 25 -15 -10 -12 -7 -13 11
-10 18 4 20 2 11 -7 -10 -10 -17 -10 -32 0 -26 16 -33 15 -26 -3 3 -8 1 -15
-3 -15 -5 0 -18 -3 -28 -7 -16 -6 -16 -5 -4 10 7 9 9 17 3 17 -5 0 -12 11 -15
25 -4 24 -3 25 17 12 12 -8 29 -11 41 -7z m215 -24 c0 -3 -5 -8 -12 -12 -7 -4
-8 -3 -4 4 7 12 16 16 16 8z m437 -2 c-3 -3 -12 -4 -19 -1 -8 3 -5 6 6 6 11 1
17 -2 13 -5z m-340 -11 c-4 -3 -10 -3 -14 0 -3 4 0 7 7 7 7 0 10 -3 7 -7z
m110 1 c-3 -3 -12 -4 -19 -1 -8 3 -5 6 6 6 11 1 17 -2 13 -5z m406 -1 c-7 -2
-19 -2 -25 0 -7 3 -2 5 12 5 14 0 19 -2 13 -5z m-938 -13 c3 -5 -3 -10 -15
-10 -12 0 -18 5 -15 10 3 6 10 10 15 10 5 0 12 -4 15 -10z m152 -7 c-4 -3 -10
-3 -14 0 -3 4 0 7 7 7 7 0 10 -3 7 -7z m56 0 c-7 -2 -19 -2 -25 0 -7 3 -2 5
12 5 14 0 19 -2 13 -5z m64 0 c-4 -3 -10 -3 -14 0 -3 4 0 7 7 7 7 0 10 -3 7
-7z m43 -3 c0 -5 -7 -10 -16 -10 -8 0 -12 5 -9 10 3 6 10 10 16 10 5 0 9 -4 9
-10z m137 3 c-4 -3 -10 -3 -14 0 -3 4 0 7 7 7 7 0 10 -3 7 -7z m-60 -9 c-3 -3
-12 -4 -19 -1 -8 3 -5 6 6 6 11 1 17 -2 13 -5z m-402 -14 c3 -5 1 -10 -4 -10
-6 0 -11 5 -11 10 0 6 2 10 4 10 3 0 8 -4 11 -10z m92 4 c-3 -3 -12 -4 -19 -1
-8 3 -5 6 6 6 11 1 17 -2 13 -5z m190 -21 c-4 -3 -7 0 -7 7 0 7 3 10 7 7 3 -4
3 -10 0 -14z m93 8 c0 -14 -24 -19 -56 -13 l-29 6 25 7 c36 10 60 10 60 0z
m53 2 c-7 -2 -19 -2 -25 0 -7 3 -2 5 12 5 14 0 19 -2 13 -5z m204 -9 c-3 -3
-12 -4 -19 -1 -8 3 -5 6 6 6 11 1 17 -2 13 -5z m326 -1 c-7 -2 -21 -2 -30 0
-10 3 -4 5 12 5 17 0 24 -2 18 -5z m-940 -30 c-13 -2 -33 -2 -45 0 -13 2 -3 4
22 4 25 0 35 -2 23 -4z m-218 -23 c3 -5 -3 -10 -15 -10 -12 0 -18 5 -15 10 3
6 10 10 15 10 5 0 12 -4 15 -10z m122 -7 c-4 -3 -10 -3 -14 0 -3 4 0 7 7 7 7
0 10 -3 7 -7z"/>
<path d="M2043 2353 c4 -3 10 -3 14 0 3 4 0 7 -7 7 -7 0 -10 -3 -7 -7z"/>
<path d="M870 2315 c-54 -14 -53 -14 55 -8 103 5 156 13 88 13 -17 0 -43 2
-59 4 -16 3 -54 -2 -84 -9z"/>
<path d="M1075 2309 c-20 -4 -3 -7 49 -8 44 0 76 2 73 6 -9 8 -85 10 -122 2z"/>
<path d="M1853 1813 c4 -3 10 -3 14 0 3 4 0 7 -7 7 -7 0 -10 -3 -7 -7z"/>
<path d="M1983 1753 c15 -2 37 -2 50 0 12 2 0 4 -28 4 -27 0 -38 -2 -22 -4z"/>
<path d="M2168 1743 c17 -2 47 -2 65 0 17 2 3 4 -33 4 -36 0 -50 -2 -32 -4z"/>
<path d="M838 1643 c7 -3 16 -2 19 1 4 3 -2 6 -13 5 -11 0 -14 -3 -6 -6z"/>
<path d="M2230 1640 c8 -5 22 -9 30 -9 10 0 8 3 -5 9 -27 12 -43 12 -25 0z"/>
<path d="M2295 1640 c27 -12 43 -12 25 0 -8 5 -22 9 -30 9 -10 0 -8 -3 5 -9z"/>
<path d="M2338 1483 c7 -3 16 -2 19 1 4 3 -2 6 -13 5 -11 0 -14 -3 -6 -6z"/>
<path d="M435 2140 c-4 -12 -5 -24 -2 -27 3 -2 8 5 12 17 4 12 5 24 2 27 -3 2
-8 -5 -12 -17z"/>
<path d="M533 2293 c4 -3 10 -3 14 0 3 4 0 7 -7 7 -7 0 -10 -3 -7 -7z"/>
<path d="M2474 2268 c-7 -11 28 -10 46 2 11 7 8 9 -13 8 -16 -2 -31 -6 -33
-10z"/>
<path d="M213 2053 c4 -3 10 -3 14 0 3 4 0 7 -7 7 -7 0 -10 -3 -7 -7z"/>
<path d="M518 1804 c-5 -4 -8 -16 -8 -26 0 -23 -16 -23 -29 0 -8 13 -10 14
-10 2 -1 -8 8 -26 19 -40 22 -28 27 -96 8 -103 -8 -3 -6 -6 4 -6 12 -1 19 10
24 34 3 19 10 32 15 29 12 -7 12 29 0 42 -5 5 -11 24 -13 42 -2 19 -6 30 -10
26z"/>
<path d="M606 1725 c-38 -23 -39 -39 -1 -25 21 8 51 38 44 44 -2 1 -21 -7 -43
-19z"/>
<path d="M543 1633 c9 -2 23 -2 30 0 6 3 -1 5 -18 5 -16 0 -22 -2 -12 -5z"/>
<path d="M500 1610 c0 -7 3 -10 7 -7 3 4 3 10 0 14 -4 3 -7 0 -7 -7z"/>
<path d="M363 1103 c15 -2 37 -2 50 0 12 2 0 4 -28 4 -27 0 -38 -2 -22 -4z"/>
<path d="M383 973 c9 -2 23 -2 30 0 6 3 -1 5 -18 5 -16 0 -22 -2 -12 -5z"/>
<path d="M448 963 c7 -3 16 -2 19 1 4 3 -2 6 -13 5 -11 0 -14 -3 -6 -6z"/>
<path d="M428 913 c6 -2 18 -2 25 0 6 3 1 5 -13 5 -14 0 -19 -2 -12 -5z"/>
<path d="M368 903 c7 -3 16 -2 19 1 4 3 -2 6 -13 5 -11 0 -14 -3 -6 -6z"/>
<path d="M438 893 c7 -3 16 -2 19 1 4 3 -2 6 -13 5 -11 0 -14 -3 -6 -6z"/>
<path d="M323 843 c4 -3 10 -3 14 0 3 4 0 7 -7 7 -7 0 -10 -3 -7 -7z"/>
<path d="M298 733 c7 -3 16 -2 19 1 4 3 -2 6 -13 5 -11 0 -14 -3 -6 -6z"/>
<path d="M2360 1753 c1 -18 37 -52 63 -58 39 -10 34 11 -8 31 -19 9 -35 20
-35 25 0 5 -4 9 -10 9 -5 0 -10 -3 -10 -7z"/>
<path d="M2528 1373 c7 -3 16 -2 19 1 4 3 -2 6 -13 5 -11 0 -14 -3 -6 -6z"/>
<path d="M2608 1133 c12 -2 30 -2 40 0 9 3 -1 5 -23 4 -22 0 -30 -2 -17 -4z"/>
<path d="M1128 1613 c12 -2 32 -2 45 0 12 2 2 4 -23 4 -25 0 -35 -2 -22 -4z"/>
<path d="M1313 1583 c4 -3 10 -3 14 0 3 4 0 7 -7 7 -7 0 -10 -3 -7 -7z"/>
<path d="M1850 1500 c0 -7 3 -10 7 -7 3 4 3 10 0 14 -4 3 -7 0 -7 -7z"/>
<path d="M950 1453 c-37 -26 -58 -53 -41 -53 7 0 7 -8 1 -26 -6 -14 -10 -40
-9 -57 0 -30 1 -29 15 14 7 26 20 51 27 57 19 16 52 -9 76 -56 34 -66 98 -131
138 -138 40 -8 94 8 132 37 26 20 46 25 36 9 -3 -5 -1 -10 5 -10 6 0 18 12 27
28 9 15 33 35 54 44 48 20 66 58 48 100 -14 34 -32 49 -21 17 21 -55 -27 -116
-81 -105 -40 8 -84 42 -112 86 -22 35 -85 72 -85 49 0 -16 -54 -10 -85 11 -40
26 -82 24 -125 -7z m227 -73 c12 -10 24 -28 28 -40 3 -11 18 -23 33 -26 15 -4
31 -9 36 -12 13 -7 -52 -32 -86 -32 -37 0 -86 28 -94 53 -3 10 -17 22 -30 27
-33 13 -30 25 9 38 50 16 81 14 104 -8z m-1 -133 l29 -4 -31 -2 c-20 0 -41 7
-55 20 l-24 21 26 -15 c14 -8 39 -17 55 -20z m21 -24 c-4 -3 -10 -3 -14 0 -3
4 0 7 7 7 7 0 10 -3 7 -7z"/>
<path d="M1942 1464 c-11 -12 -32 -14 -113 -9 -62 4 -99 3 -99 -3 0 -5 6 -10
13 -9 57 2 58 0 27 -47 -49 -73 -111 -101 -156 -72 -32 22 -46 59 -34 91 5 14
6 25 1 25 -11 0 -31 -46 -31 -71 0 -25 55 -79 79 -79 10 0 23 -11 29 -24 6
-14 21 -30 34 -37 21 -11 22 -11 9 4 -18 23 1 22 30 -2 96 -74 188 -44 261 87
32 55 67 87 80 74 5 -5 17 -31 28 -58 l19 -49 1 41 c0 22 -6 46 -12 53 -10 11
-10 14 -1 18 20 7 -2 38 -37 53 -16 7 -30 16 -30 21 0 15 -84 9 -98 -7z m21
-86 c19 -10 19 -11 2 -21 -10 -5 -35 -27 -55 -49 -40 -41 -64 -46 -131 -27
-39 12 -44 29 -9 29 10 0 28 12 39 28 44 58 54 64 95 58 21 -4 48 -12 59 -18z
m-53 -113 c0 -2 -11 -11 -24 -20 -17 -11 -29 -13 -47 -6 -23 9 -23 10 8 10 17
1 35 6 38 11 6 10 25 14 25 5z"/>
<path d="M1043 1203 c9 -2 23 -2 30 0 6 3 -1 5 -18 5 -16 0 -22 -2 -12 -5z"/>
<path d="M1248 1173 c6 -2 18 -2 25 0 6 3 1 5 -13 5 -14 0 -19 -2 -12 -5z"/>
<path d="M1658 1133 c7 -3 16 -2 19 1 4 3 -2 6 -13 5 -11 0 -14 -3 -6 -6z"/>
<path d="M1788 1093 c12 -2 32 -2 45 0 12 2 2 4 -23 4 -25 0 -35 -2 -22 -4z"/>
<path d="M1680 1086 c0 -2 7 -7 16 -10 8 -3 12 -2 9 4 -6 10 -25 14 -25 6z"/>
<path d="M1538 1023 c7 -3 16 -2 19 1 4 3 -2 6 -13 5 -11 0 -14 -3 -6 -6z"/>
<path d="M1583 1023 c4 -3 10 -3 14 0 3 4 0 7 -7 7 -7 0 -10 -3 -7 -7z"/>
<path d="M1683 1003 c4 -3 10 -3 14 0 3 4 0 7 -7 7 -7 0 -10 -3 -7 -7z"/>
<path d="M830 966 c0 -2 7 -7 16 -10 8 -3 12 -2 9 4 -6 10 -25 14 -25 6z"/>
<path d="M898 963 c7 -3 16 -2 19 1 4 3 -2 6 -13 5 -11 0 -14 -3 -6 -6z"/>
<path d="M2438 1003 c7 -3 16 -2 19 1 4 3 -2 6 -13 5 -11 0 -14 -3 -6 -6z"/>
<path d="M2063 1003 c4 -3 10 -3 14 0 3 4 0 7 -7 7 -7 0 -10 -3 -7 -7z"/>
<path d="M2113 1003 c4 -3 10 -3 14 0 3 4 0 7 -7 7 -7 0 -10 -3 -7 -7z"/>
<path d="M1838 853 c7 -3 16 -2 19 1 4 3 -2 6 -13 5 -11 0 -14 -3 -6 -6z"/>
<path d="M2803 1033 c4 -3 10 -3 14 0 3 4 0 7 -7 7 -7 0 -10 -3 -7 -7z"/>
<path d="M670 870 c0 -5 5 -10 10 -10 6 0 10 5 10 10 0 6 -4 10 -10 10 -5 0
-10 -4 -10 -10z"/>
<path d="M713 873 c4 -3 10 -3 14 0 3 4 0 7 -7 7 -7 0 -10 -3 -7 -7z"/>
<path d="M753 873 c4 -3 10 -3 14 0 3 4 0 7 -7 7 -7 0 -10 -3 -7 -7z"/>
<path d="M636 861 c-9 -13 32 -24 70 -18 26 4 26 4 -6 6 -20 0 -41 6 -47 12
-7 7 -13 8 -17 0z"/>
<path d="M868 763 c7 -3 16 -2 19 1 4 3 -2 6 -13 5 -11 0 -14 -3 -6 -6z"/>
<path d="M763 753 c4 -3 10 -3 14 0 3 4 0 7 -7 7 -7 0 -10 -3 -7 -7z"/>
<path d="M603 723 c9 -2 25 -2 35 0 9 3 1 5 -18 5 -19 0 -27 -2 -17 -5z"/>
<path d="M671 721 c-14 -9 40 -15 254 -27 61 -4 108 -4 105 -1 -3 3 -68 10
-145 16 -77 6 -153 13 -170 16 -16 3 -36 1 -44 -4z"/>
<path d="M573 703 c4 -3 10 -3 14 0 3 4 0 7 -7 7 -7 0 -10 -3 -7 -7z"/>
<path d="M603 703 c4 -3 10 -3 14 0 3 4 0 7 -7 7 -7 0 -10 -3 -7 -7z"/>
<path d="M604 679 c-13 -5 -7 -8 24 -8 23 -1 42 1 42 3 0 8 -48 12 -66 5z"/>
<path d="M2288 943 c7 -3 16 -2 19 1 4 3 -2 6 -13 5 -11 0 -14 -3 -6 -6z"/>
<path d="M1123 843 c4 -3 10 -3 14 0 3 4 0 7 -7 7 -7 0 -10 -3 -7 -7z"/>
<path d="M1153 843 c4 -3 10 -3 14 0 3 4 0 7 -7 7 -7 0 -10 -3 -7 -7z"/>
<path d="M1033 833 c4 -3 10 -3 14 0 3 4 0 7 -7 7 -7 0 -10 -3 -7 -7z"/>
<path d="M1073 833 c9 -2 23 -2 30 0 6 3 -1 5 -18 5 -16 0 -22 -2 -12 -5z"/>
<path d="M1375 800 c-3 -5 -1 -10 4 -10 6 0 11 5 11 10 0 6 -2 10 -4 10 -3 0
-8 -4 -11 -10z"/>
<path d="M1403 793 c4 -3 10 -3 14 0 3 4 0 7 -7 7 -7 0 -10 -3 -7 -7z"/>
<path d="M1448 783 c6 -2 18 -2 25 0 6 3 1 5 -13 5 -14 0 -19 -2 -12 -5z"/>
<path d="M1498 783 c7 -3 16 -2 19 1 4 3 -2 6 -13 5 -11 0 -14 -3 -6 -6z"/>
<path d="M1103 763 c4 -3 10 -3 14 0 3 4 0 7 -7 7 -7 0 -10 -3 -7 -7z"/>
<path d="M1333 759 c9 -6 15 -14 12 -20 -4 -5 6 -8 22 -8 17 1 21 3 11 6 -25
6 -22 21 5 26 12 2 2 5 -23 5 -35 1 -41 -1 -27 -9z"/>
<path d="M1578 763 c7 -3 16 -2 19 1 4 3 -2 6 -13 5 -11 0 -14 -3 -6 -6z"/>
<path d="M1415 740 c3 -5 11 -10 16 -10 6 0 7 5 4 10 -3 6 -11 10 -16 10 -6 0
-7 -4 -4 -10z"/>
<path d="M1133 733 c9 -2 23 -2 30 0 6 3 -1 5 -18 5 -16 0 -22 -2 -12 -5z"/>
<path d="M1266 695 c-4 -10 1 -15 16 -15 17 0 18 2 8 15 -7 8 -14 15 -15 15
-2 0 -5 -7 -9 -15z"/>
<path d="M933 863 c4 -3 10 -3 14 0 3 4 0 7 -7 7 -7 0 -10 -3 -7 -7z"/>
<path d="M1783 733 c4 -3 10 -3 14 0 3 4 0 7 -7 7 -7 0 -10 -3 -7 -7z"/>
<path d="M2676 2465 c-4 -12 3 -15 32 -14 20 1 29 3 20 6 -10 2 -18 9 -18 14
0 15 -27 10 -34 -6z"/>
<path d="M2758 2453 c7 -3 16 -2 19 1 4 3 -2 6 -13 5 -11 0 -14 -3 -6 -6z"/>
<path d="M2643 2443 c4 -3 10 -3 14 0 3 4 0 7 -7 7 -7 0 -10 -3 -7 -7z"/>
<path d="M2983 2363 c4 -3 10 -3 14 0 3 4 0 7 -7 7 -7 0 -10 -3 -7 -7z"/>
<path d="M2848 2293 c7 -3 16 -2 19 1 4 3 -2 6 -13 5 -11 0 -14 -3 -6 -6z"/>
<path d="M2935 2290 c-16 -7 -13 -9 18 -9 20 -1 37 4 37 9 0 12 -27 12 -55 0z"/>
<path d="M2973 1843 c4 -3 10 -3 14 0 3 4 0 7 -7 7 -7 0 -10 -3 -7 -7z"/>
<path d="M2945 1821 l-40 -7 48 -5 c33 -3 47 -1 47 8 0 7 -3 12 -7 12 -5 -1
-26 -5 -48 -8z"/>
<path d="M2733 1783 c4 -3 10 -3 14 0 3 4 0 7 -7 7 -7 0 -10 -3 -7 -7z"/>
<path d="M2870 1778 c68 -5 118 -14 122 -21 5 -8 8 -7 8 4 0 18 -78 30 -184
28 -45 -1 -31 -4 54 -11z"/>
<path d="M2688 1703 c7 -3 16 -2 19 1 4 3 -2 6 -13 5 -11 0 -14 -3 -6 -6z"/>
<path d="M2728 1703 c6 -2 18 -2 25 0 6 3 1 5 -13 5 -14 0 -19 -2 -12 -5z"/>
<path d="M293 1633 c4 -3 10 -3 14 0 3 4 0 7 -7 7 -7 0 -10 -3 -7 -7z"/>
<path d="M433 1633 c4 -3 10 -3 14 0 3 4 0 7 -7 7 -7 0 -10 -3 -7 -7z"/>
<path d="M2743 1562 c-8 -5 -7 -12 4 -27 11 -14 14 -15 10 -4 -3 9 0 22 6 28
12 12 -2 15 -20 3z"/>
<path d="M2703 1533 c4 -3 10 -3 14 0 3 4 0 7 -7 7 -7 0 -10 -3 -7 -7z"/>
<path d="M2923 1444 c3 -3 19 -6 36 -6 31 -1 41 -11 21 -21 -6 -3 -5 -4 2 -3
7 1 14 10 16 18 2 12 -7 16 -39 16 -22 1 -39 -1 -36 -4z"/>
<path d="M2870 1426 c0 -2 9 -6 20 -9 11 -3 20 -1 20 4 0 5 -9 9 -20 9 -11 0
-20 -2 -20 -4z"/>
<path d="M2764 1399 c-3 -5 6 -9 20 -9 31 0 34 6 6 13 -11 3 -23 1 -26 -4z"/>
<path d="M320 1390 c-32 -7 -31 -7 18 -9 33 -1 51 3 47 9 -7 11 -13 11 -65 0z"/>
<path d="M2683 1383 c4 -3 10 -3 14 0 3 4 0 7 -7 7 -7 0 -10 -3 -7 -7z"/>
<path d="M2710 1380 c0 -5 9 -10 20 -10 11 0 20 5 20 10 0 6 -9 10 -20 10 -11
0 -20 -4 -20 -10z"/>
<path d="M2960 1380 c0 -5 9 -10 21 -10 11 0 17 5 14 10 -3 6 -13 10 -21 10
-8 0 -14 -4 -14 -10z"/>
<path d="M2793 1373 c4 -3 10 -3 14 0 3 4 0 7 -7 7 -7 0 -10 -3 -7 -7z"/>
<path d="M2689 1357 c5 -5 26 -7 47 -5 l39 3 -47 5 c-26 3 -43 1 -39 -3z"/>
<path d="M2815 1311 l-30 -8 30 -4 c17 -2 29 -9 28 -16 -2 -7 4 -10 12 -7 18
7 19 20 3 28 -7 3 -2 3 12 1 57 -11 120 -12 126 -4 3 6 -11 9 -33 8 -21 -1
-56 0 -78 3 -22 4 -53 3 -70 -1z"/>
<path d="M2793 1273 c4 -3 10 -3 14 0 3 4 0 7 -7 7 -7 0 -10 -3 -7 -7z"/>
<path d="M2758 1263 c7 -3 16 -2 19 1 4 3 -2 6 -13 5 -11 0 -14 -3 -6 -6z"/>
<path d="M18 1173 c7 -3 16 -2 19 1 4 3 -2 6 -13 5 -11 0 -14 -3 -6 -6z"/>
<path d="M45 1001 c-6 -5 -19 -11 -30 -14 -15 -3 -13 -5 8 -6 31 -1 28 -21 -4
-21 -10 0 -19 -5 -19 -11 0 -7 9 -9 23 -5 12 3 26 6 30 6 5 0 7 8 5 18 -3 12
6 20 32 28 l35 12 -35 1 c-20 1 -40 -3 -45 -8z"/>
<path d="M175 930 c3 -5 16 -10 28 -9 21 0 21 1 2 9 -28 12 -37 12 -30 0z"/>
<path d="M3 815 c0 -9 10 -15 25 -15 21 0 22 2 12 15 -7 8 -18 15 -25 15 -6 0
-12 -7 -12 -15z"/>
<path d="M2263 783 c4 -3 10 -3 14 0 3 4 0 7 -7 7 -7 0 -10 -3 -7 -7z"/>
<path d="M2196 763 c-4 -5 -17 -9 -29 -10 -12 -1 -44 -6 -72 -11 -44 -9 -46
-10 -15 -10 48 -1 119 13 133 27 7 7 7 11 1 11 -6 0 -14 -3 -18 -7z"/>
<path d="M2244 758 c-4 -7 -3 -8 4 -4 12 7 16 16 8 16 -3 0 -8 -5 -12 -12z"/>
<path d="M193 743 c9 -2 23 -2 30 0 6 3 -1 5 -18 5 -16 0 -22 -2 -12 -5z"/>
<path d="M2273 723 c4 -3 10 -3 14 0 3 4 0 7 -7 7 -7 0 -10 -3 -7 -7z"/>
<path d="M2240 710 c0 -5 5 -10 10 -10 6 0 10 5 10 10 0 6 -4 10 -10 10 -5 0
-10 -4 -10 -10z"/>
<path d="M2333 693 c4 -3 10 -3 14 0 3 4 0 7 -7 7 -7 0 -10 -3 -7 -7z"/>
<path d="M2113 683 c4 -3 10 -3 14 0 3 4 0 7 -7 7 -7 0 -10 -3 -7 -7z"/>
<path d="M3 653 c7 -11 160 -28 212 -24 61 5 49 21 -15 21 -36 0 -96 3 -134 7
-47 4 -67 3 -63 -4z"/>
<path d="M1890 620 c-12 -9 -10 -10 10 -8 14 1 31 -1 39 -6 9 -6 12 -5 9 5 -6
18 -38 22 -58 9z"/>
<path d="M1813 603 c4 -3 10 -3 14 0 3 4 0 7 -7 7 -7 0 -10 -3 -7 -7z"/>
<path d="M413 593 c4 -3 10 -3 14 0 3 4 0 7 -7 7 -7 0 -10 -3 -7 -7z"/>
<path d="M1915 590 c3 -5 8 -10 11 -10 2 0 4 5 4 10 0 6 -5 10 -11 10 -5 0 -7
-4 -4 -10z"/>
<path d="M1731 579 c-61 -12 -66 -22 -7 -16 26 3 53 10 59 16 12 12 10 12 -52
0z"/>
<path d="M393 573 c9 -2 23 -2 30 0 6 3 -1 5 -18 5 -16 0 -22 -2 -12 -5z"/>
<path d="M1865 573 c-29 -7 -39 -19 -21 -26 8 -3 18 -2 21 3 4 6 15 10 26 10
11 0 17 5 14 10 -6 10 -8 11 -40 3z"/>
<path d="M73 563 c9 -2 25 -2 35 0 9 3 1 5 -18 5 -19 0 -27 -2 -17 -5z"/>
<path d="M253 563 c4 -3 10 -3 14 0 3 4 0 7 -7 7 -7 0 -10 -3 -7 -7z"/>
<path d="M873 563 c4 -3 10 -3 14 0 3 4 0 7 -7 7 -7 0 -10 -3 -7 -7z"/>
<path d="M1795 560 c3 -5 11 -10 16 -10 6 0 7 5 4 10 -3 6 -11 10 -16 10 -6 0
-7 -4 -4 -10z"/>
<path d="M935 550 c30 -8 132 -13 124 -6 -2 2 -38 6 -79 9 -44 3 -63 2 -45 -3z"/>
<path d="M1353 553 c4 -3 10 -3 14 0 3 4 0 7 -7 7 -7 0 -10 -3 -7 -7z"/>
<path d="M18 538 c-8 -4 4 -8 30 -8 23 0 42 2 42 4 0 8 -60 12 -72 4z"/>
<path d="M1084 541 c5 -7 14 -10 22 -7 8 3 14 1 14 -4 0 -13 77 -13 85 0 3 6
-2 10 -13 10 -11 0 -41 3 -67 7 -37 5 -46 3 -41 -6z"/>
<path d="M1666 541 c-19 -7 -18 -8 4 -14 34 -9 18 -20 -27 -20 -22 0 -28 -2
-15 -4 22 -4 23 -5 5 -18 -16 -12 -15 -14 18 -20 20 -4 47 -5 60 -2 17 3 12 5
-13 6 -27 1 -38 6 -38 16 0 17 45 21 55 5 3 -5 12 -10 18 -9 9 0 9 2 0 6 -7 2
-13 11 -13 19 0 9 -5 12 -12 8 -7 -4 -8 -3 -4 4 4 7 21 16 39 21 31 9 31 9
-13 9 -25 1 -54 -3 -64 -7z"/>
<path d="M203 533 c4 -3 10 -3 14 0 3 4 0 7 -7 7 -7 0 -10 -3 -7 -7z"/>
<path d="M234 532 c3 -6 26 -13 51 -16 47 -8 57 -19 28 -31 -16 -6 -15 -8 7
-20 16 -9 20 -15 10 -16 -8 -1 -26 -3 -40 -5 -43 -6 -91 -6 -97 0 -4 3 3 6 15
6 12 0 21 6 20 13 -2 7 6 11 22 9 19 -3 22 -1 13 8 -7 8 -19 10 -30 5 -10 -5
-22 -7 -26 -6 -5 1 -6 -3 -2 -9 4 -7 -7 -9 -32 -6 -101 13 -130 17 -153 23
-18 4 -22 2 -15 -5 10 -11 42 -20 80 -21 17 -1 17 -3 5 -11 -12 -7 -8 -10 15
-10 23 0 27 3 15 10 -13 8 -12 10 3 10 27 0 15 -25 -14 -28 -90 -9 -109 -14
-109 -27 0 -11 13 -13 64 -8 48 4 75 1 109 -12 26 -10 62 -15 82 -13 30 3 34
2 21 -7 -9 -7 -12 -15 -6 -21 5 -5 -4 -10 -23 -11 -26 -1 -28 0 -12 7 19 8 19
9 -2 9 -12 1 -24 -5 -26 -11 -4 -9 -11 -7 -24 8 -10 12 -31 25 -48 28 -73 17
-85 18 -85 7 0 -7 -9 -9 -25 -5 -22 5 -25 3 -25 -19 0 -14 6 -28 13 -30 10 -4
10 -6 0 -6 -8 -1 -13 -17 -13 -44 l0 -44 108 -8 c59 -4 127 -6 152 -4 59 3 92
2 164 -5 45 -5 57 -3 53 6 -3 8 5 14 21 15 18 1 21 -1 11 -8 -8 -5 -9 -9 -3
-9 5 0 15 5 21 11 6 6 27 11 47 11 33 0 64 17 34 19 -50 3 -76 19 -32 20 16 0
46 2 67 5 44 5 110 -10 131 -31 19 -20 46 -19 46 1 0 10 -7 14 -22 12 -11 -2
-23 3 -26 11 -3 9 0 11 8 6 8 -5 11 -4 6 3 -3 6 -2 13 4 17 5 3 10 1 10 -4 0
-6 5 -11 11 -11 6 0 9 6 7 13 -6 15 -48 18 -65 5 -7 -6 -24 -6 -45 0 -18 5
-41 8 -51 6 -9 -1 -15 2 -12 6 3 5 -16 7 -43 3 -30 -3 -57 -1 -68 6 -17 10
-15 11 11 8 17 -3 36 1 43 9 11 12 6 14 -32 14 -25 0 -48 5 -51 10 -8 13 -56
13 -75 -1 -12 -8 -10 -9 9 -4 17 5 21 4 16 -5 -5 -9 -2 -10 13 -6 14 5 27 0
39 -13 10 -11 29 -24 42 -29 18 -6 12 -8 -28 -9 -28 0 -48 3 -45 8 3 5 -1 7
-8 4 -7 -3 -26 -1 -43 4 l-30 9 40 3 c34 2 36 3 10 6 -16 2 -37 7 -45 10 -8 3
-17 7 -20 8 -3 1 -12 4 -20 8 -34 13 -115 27 -162 28 -21 0 -35 18 -16 20 7 1
0 5 -17 9 -30 8 -30 8 8 9 23 1 36 -3 32 -9 -3 -5 -3 -10 2 -11 8 -1 40 -5
103 -14 25 -3 31 -2 20 5 -8 5 -25 10 -37 10 -13 0 -23 5 -23 10 0 13 16 13
39 1 20 -11 35 -4 44 22 3 9 17 17 29 17 19 1 17 3 -11 16 -19 8 -32 17 -29
19 7 7 59 -21 68 -36 5 -7 18 -9 35 -5 26 7 26 8 11 25 -14 15 -14 20 -4 24 9
4 8 6 -4 6 -9 1 -18 6 -20 12 -3 9 -13 9 -41 0 -20 -7 -42 -9 -49 -5 -7 4 -24
9 -38 10 -14 2 -36 6 -48 9 -14 3 -21 2 -18 -3z m196 -34 c0 -5 -13 -8 -30 -8
-16 0 -30 4 -30 9 0 4 13 8 30 7 16 -1 30 -4 30 -8z m7 -35 c-4 -3 -10 -3 -14
0 -3 4 0 7 7 7 7 0 10 -3 7 -7z m-270 -20 c-4 -3 -10 -3 -14 0 -3 4 0 7 7 7 7
0 10 -3 7 -7z m-74 -70 c-7 -2 -19 -2 -25 0 -7 3 -2 5 12 5 14 0 19 -2 13 -5z
m64 -19 c-3 -3 -22 -6 -42 -6 -20 0 -39 3 -42 6 -4 3 15 6 42 6 27 0 46 -3 42
-6z m228 -26 c-4 -10 -16 -13 -36 -10 -34 5 -28 18 11 24 31 5 32 4 25 -14z
m-212 -4 c62 -9 52 -20 -19 -23 -31 -1 -60 -4 -64 -6 -5 -3 -19 4 -31 15 l-24
19 46 1 c25 0 67 -3 92 -6z m82 -14 c3 -5 -1 -10 -10 -10 -9 0 -13 5 -10 10 3
6 8 10 10 10 2 0 7 -4 10 -10z m352 -6 c-3 -3 -12 -4 -19 -1 -8 3 -5 6 6 6 11
1 17 -2 13 -5z m-420 -34 c-3 -13 0 -20 9 -20 8 0 14 -3 14 -8 0 -4 -18 -6
-40 -4 -24 3 -40 9 -40 17 0 19 -27 26 -54 13 -14 -6 -33 -7 -43 -3 -16 7 -15
9 7 15 14 3 54 8 89 9 59 2 63 0 58 -19z m193 4 c0 -2 -7 -4 -15 -4 -8 0 -15
4 -15 10 0 5 7 7 15 4 8 -4 15 -8 15 -10z m133 9 c25 -7 10 -24 -16 -18 -12 3
-39 6 -59 8 -21 2 -41 6 -44 10 -7 7 92 7 119 0z m-222 -18 c-37 -17 -81 -20
-65 -6 11 11 40 18 74 19 22 1 21 0 -9 -13z m-171 -9 c0 -3 -4 -8 -10 -11 -5
-3 -10 -1 -10 4 0 6 5 11 10 11 6 0 10 -2 10 -4z m280 -6 c-8 -5 -24 -9 -35
-9 -16 1 -16 2 5 9 35 11 48 11 30 0z m-342 -7 c-10 -2 -26 -2 -35 0 -10 3 -2
5 17 5 19 0 27 -2 18 -5z"/>
<path d="M143 253 c4 -3 10 -3 14 0 3 4 0 7 -7 7 -7 0 -10 -3 -7 -7z"/>
<path d="M83 523 c-13 -3 -23 -8 -23 -12 0 -4 -15 -6 -33 -5 l-32 3 35 -9 c21
-5 39 -5 45 1 5 5 25 8 45 8 l35 -2 -40 -7 c-33 -6 -28 -7 35 -8 l75 -1 -39
14 c-51 18 -77 23 -103 18z"/>
<path d="M1260 520 c-42 -7 -43 -7 -10 -9 19 -1 44 -3 55 -5 11 -2 14 -1 6 1
-12 4 -12 6 0 14 8 5 10 8 4 7 -5 0 -30 -4 -55 -8z"/>
<path d="M1750 520 c-13 -8 -12 -10 3 -10 11 0 15 -4 11 -12 -4 -7 -3 -8 4 -4
6 4 9 13 5 21 -6 18 -4 17 -23 5z"/>
<path d="M278 493 c7 -3 16 -2 19 1 4 3 -2 6 -13 5 -11 0 -14 -3 -6 -6z"/>
<path d="M773 493 c4 -3 10 -3 14 0 3 4 0 7 -7 7 -7 0 -10 -3 -7 -7z"/>
<path d="M541 481 c17 -11 144 -19 153 -10 3 3 -24 6 -61 7 -36 1 -75 4 -87 7
-17 5 -18 4 -5 -4z"/>
<path d="M728 483 c7 -3 16 -2 19 1 4 3 -2 6 -13 5 -11 0 -14 -3 -6 -6z"/>
<path d="M1525 481 c-3 -5 0 -13 6 -17 8 -5 9 -3 4 6 -6 9 -1 10 16 5 19 -5
21 -4 9 4 -19 13 -27 14 -35 2z"/>
<path d="M908 473 c12 -2 30 -2 40 0 9 3 -1 5 -23 4 -22 0 -30 -2 -17 -4z"/>
<path d="M983 470 c-28 -11 -30 -20 -4 -13 10 3 30 -1 42 -8 24 -12 24 -12 5
10 -11 11 -20 21 -20 20 -1 0 -11 -4 -23 -9z"/>
<path d="M1323 473 c9 -2 23 -2 30 0 6 3 -1 5 -18 5 -16 0 -22 -2 -12 -5z"/>
<path d="M1443 465 c0 -8 7 -17 15 -20 9 -3 12 0 9 9 -4 10 2 16 16 19 16 3
14 5 -9 6 -21 1 -31 -4 -31 -14z"/>
<path d="M738 463 c6 -2 18 -2 25 0 6 3 1 5 -13 5 -14 0 -19 -2 -12 -5z"/>
<path d="M1150 460 c0 -6 7 -10 15 -10 8 0 15 2 15 4 0 2 -7 6 -15 10 -8 3
-15 1 -15 -4z"/>
<path d="M1335 455 l-50 -13 40 -2 40 -3 -40 -7 c-22 -4 -30 -8 -18 -9 13 0
28 -10 35 -21 8 -12 23 -20 38 -19 l25 1 -25 7 c-24 7 -24 8 8 15 30 7 36 19
11 22 -5 1 -13 2 -19 3 -20 2 -9 20 18 29 40 15 -1 13 -63 -3z"/>
<path d="M0 453 c0 -5 11 -9 25 -9 14 -1 22 2 19 7 -6 11 -44 12 -44 2z"/>
<path d="M918 453 c7 -3 16 -2 19 1 4 3 -2 6 -13 5 -11 0 -14 -3 -6 -6z"/>
<path d="M1078 453 c12 -2 30 -2 40 0 9 3 -1 5 -23 4 -22 0 -30 -2 -17 -4z"/>
<path d="M1220 448 c0 -4 14 -8 30 -8 17 0 30 2 30 4 0 2 -13 6 -30 8 -16 3
-30 1 -30 -4z"/>
<path d="M1622 445 c8 -8 77 -9 85 -2 3 4 -15 7 -42 7 -27 0 -46 -2 -43 -5z"/>
<path d="M547 433 c-17 -16 -3 -23 46 -20 40 1 51 -1 49 -12 -2 -11 0 -12 10
-4 7 6 27 15 43 20 26 9 21 10 -39 11 -37 1 -76 4 -85 7 -10 3 -20 2 -24 -2z"/>
<path d="M740 430 c0 -7 3 -10 7 -7 3 4 3 10 0 14 -4 3 -7 0 -7 -7z"/>
<path d="M1153 433 c4 -3 10 -3 14 0 3 4 0 7 -7 7 -7 0 -10 -3 -7 -7z"/>
<path d="M943 423 c4 -3 10 -3 14 0 3 4 0 7 -7 7 -7 0 -10 -3 -7 -7z"/>
<path d="M488 413 c7 -3 16 -2 19 1 4 3 -2 6 -13 5 -11 0 -14 -3 -6 -6z"/>
<path d="M873 413 c4 -3 10 -3 14 0 3 4 0 7 -7 7 -7 0 -10 -3 -7 -7z"/>
<path d="M1610 410 c-9 -6 -10 -10 -3 -10 6 0 15 5 18 10 8 12 4 12 -15 0z"/>
<path d="M1695 410 c3 -5 8 -10 11 -10 3 0 2 5 -1 10 -3 6 -8 10 -11 10 -3 0
-2 -4 1 -10z"/>
<path d="M1765 410 l-40 -7 40 -2 c22 -1 50 -4 61 -7 13 -4 23 0 27 9 6 16
-21 18 -88 7z"/>
<path d="M2068 413 c7 -3 16 -2 19 1 4 3 -2 6 -13 5 -11 0 -14 -3 -6 -6z"/>
<path d="M2148 402 c32 -28 102 -49 111 -33 4 6 12 11 17 10 5 -1 16 -1 24 1
33 4 -27 19 -78 19 -33 1 -51 5 -47 11 4 6 -5 10 -21 10 l-27 0 21 -18z"/>
<path d="M440 400 c-9 -6 -10 -10 -3 -10 6 0 15 5 18 10 8 12 4 12 -15 0z"/>
<path d="M838 403 c7 -3 16 -2 19 1 4 3 -2 6 -13 5 -11 0 -14 -3 -6 -6z"/>
<path d="M1020 400 c8 -5 20 -10 25 -10 6 0 3 5 -5 10 -8 5 -19 10 -25 10 -5
0 -3 -5 5 -10z"/>
<path d="M1291 401 c-9 -6 -4 -10 16 -14 34 -6 41 -2 16 11 -11 6 -25 7 -32 3z"/>
<path d="M1508 403 c7 -3 16 -2 19 1 4 3 -2 6 -13 5 -11 0 -14 -3 -6 -6z"/>
<path d="M1568 403 c7 -3 16 -2 19 1 4 3 -2 6 -13 5 -11 0 -14 -3 -6 -6z"/>
<path d="M2363 403 c4 -3 10 -3 14 0 3 4 0 7 -7 7 -7 0 -10 -3 -7 -7z"/>
<path d="M533 393 c4 -3 10 -3 14 0 3 4 0 7 -7 7 -7 0 -10 -3 -7 -7z"/>
<path d="M595 390 c3 -5 -2 -11 -12 -11 -26 -2 54 -17 102 -20 36 -2 35 -3
-15 -8 l-55 -7 63 -4 c34 -3 62 -2 62 2 0 13 -55 58 -58 48 -2 -5 -17 -10 -33
-10 -18 0 -28 4 -24 10 3 6 -3 10 -15 10 -12 0 -18 -4 -15 -10z"/>
<path d="M758 393 c7 -3 16 -2 19 1 4 3 -2 6 -13 5 -11 0 -14 -3 -6 -6z"/>
<path d="M1980 390 c-8 -5 -37 -10 -65 -10 -36 0 -46 -3 -35 -10 13 -8 12 -10
-4 -10 -11 0 -17 -3 -14 -6 3 -3 34 -2 68 2 40 4 57 10 48 15 -9 6 -6 9 10 9
15 0 21 -4 16 -12 -5 -8 -2 -9 9 -5 10 3 17 2 17 -3 0 -6 7 -10 16 -10 8 0 12
5 9 10 -4 7 2 9 19 4 21 -5 25 -3 23 15 -1 12 -7 21 -15 21 -7 0 -10 -5 -6
-12 4 -6 3 -8 -3 -5 -20 13 -78 17 -93 7z"/>
<path d="M2453 393 c4 -3 10 -3 14 0 3 4 0 7 -7 7 -7 0 -10 -3 -7 -7z"/>
<path d="M2523 393 c4 -3 10 -3 14 0 3 4 0 7 -7 7 -7 0 -10 -3 -7 -7z"/>
<path d="M2808 393 c6 -2 9 -10 6 -15 -4 -7 -2 -8 4 -4 18 11 14 26 -5 25 -11
0 -13 -3 -5 -6z"/>
<path d="M1108 383 c6 -2 18 -2 25 0 6 3 1 5 -13 5 -14 0 -19 -2 -12 -5z"/>
<path d="M1180 380 c0 -9 14 -14 33 -11 4 0 7 -2 7 -6 0 -5 26 -8 57 -8 31 0
58 -4 60 -10 2 -6 38 -9 89 -7 47 2 84 0 81 -5 -3 -4 34 -8 82 -9 47 0 75 3
61 6 -22 6 -20 8 20 17 38 9 40 11 15 12 -16 1 -48 4 -70 7 -26 4 -35 2 -27
-4 11 -7 10 -10 -3 -16 -24 -9 -25 -8 -25 12 0 9 -3 13 -8 7 -4 -6 -20 -11
-37 -12 l-30 -2 29 13 c19 8 24 15 15 18 -20 7 -62 -10 -54 -22 4 -6 -9 -10
-32 -9 -38 1 -38 1 -8 9 25 6 -92 13 -217 13 -10 0 -18 4 -18 8 0 5 -4 9 -10
9 -5 0 -10 -4 -10 -10z"/>
<path d="M1733 383 c15 -2 39 -2 55 0 15 2 2 4 -28 4 -30 0 -43 -2 -27 -4z"/>
<path d="M2763 383 c4 -3 10 -3 14 0 3 4 0 7 -7 7 -7 0 -10 -3 -7 -7z"/>
<path d="M2863 383 c4 -3 10 -3 14 0 3 4 0 7 -7 7 -7 0 -10 -3 -7 -7z"/>
<path d="M740 375 c0 -7 39 -12 49 -5 7 4 -1 7 -18 8 -17 0 -31 -1 -31 -3z"/>
<path d="M1013 373 c25 -7 21 -22 -5 -17 -21 4 -21 4 -3 -5 12 -5 25 -5 33 1
20 17 14 28 -15 27 -17 -1 -21 -3 -10 -6z"/>
<path d="M2140 370 c0 -5 5 -10 10 -10 6 0 10 5 10 10 0 6 -4 10 -10 10 -5 0
-10 -4 -10 -10z"/>
<path d="M2463 373 c4 -3 10 -3 14 0 3 4 0 7 -7 7 -7 0 -10 -3 -7 -7z"/>
<path d="M2175 360 c3 -5 14 -10 23 -10 15 0 15 2 2 10 -20 13 -33 13 -25 0z"/>
<path d="M2323 363 c4 -3 10 -3 14 0 3 4 0 7 -7 7 -7 0 -10 -3 -7 -7z"/>
<path d="M2865 360 c25 -6 20 -8 -30 -10 -56 -3 -57 -3 -20 -9 56 -9 22 -21
-58 -21 -47 0 -58 -3 -49 -12 7 -7 45 -12 98 -13 47 0 81 1 75 3 -29 10 19 67
50 59 10 -3 17 -1 13 4 -3 5 -29 8 -57 8 -45 -1 -48 -2 -22 -9z m-88 -57 c-4
-3 -10 -3 -14 0 -3 4 0 7 7 7 7 0 10 -3 7 -7z"/>
<path d="M800 350 c-8 -5 -10 -10 -5 -10 6 0 17 5 25 10 8 5 11 10 5 10 -5 0
-17 -5 -25 -10z"/>
<path d="M1085 350 c3 -5 8 -10 11 -10 3 0 2 5 -1 10 -3 6 -8 10 -11 10 -3 0
-2 -4 1 -10z"/>
<path d="M760 340 c0 -5 5 -10 11 -10 5 0 7 5 4 10 -3 6 -8 10 -11 10 -2 0 -4
-4 -4 -10z"/>
<path d="M843 336 c0 -7 29 -12 81 -14 44 -2 83 -7 86 -11 3 -4 42 -8 88 -8
104 -1 122 -13 21 -14 -92 -2 -111 0 -123 12 -11 10 -96 12 -120 3 -14 -5 -14
-8 0 -21 8 -9 18 -12 22 -9 3 4 0 11 -8 16 -13 8 -12 10 2 10 9 0 24 -3 32 -6
15 -6 15 -8 -1 -21 -10 -8 -12 -11 -4 -7 7 3 18 0 23 -7 8 -11 9 -10 4 4 -4
12 0 17 15 17 11 0 18 -4 14 -10 -3 -5 14 -7 42 -5 26 2 39 2 28 -1 -11 -3
-27 -8 -35 -11 -8 -3 -19 -5 -23 -4 -5 1 -6 -3 -2 -9 3 -6 12 -7 18 -3 12 8
159 5 167 -3 2 -3 -2 -9 -10 -14 -11 -7 -11 -10 -2 -10 7 0 15 6 18 13 2 7 20
13 41 13 l37 0 -30 -13 c-27 -11 -26 -12 34 -13 60 0 91 -15 35 -17 -59 -1
-66 -6 -23 -13 25 -4 65 -6 90 -4 40 4 42 3 20 -7 -24 -11 -24 -11 -5 -19 18
-8 17 -9 -7 -9 -14 -1 -28 4 -30 11 -3 9 -6 9 -12 0 -4 -8 1 -16 16 -21 21 -9
20 -9 -9 -8 -17 1 -29 4 -27 6 7 8 -31 30 -51 30 -17 0 -17 -2 5 -12 25 -11
25 -11 -10 -15 -19 -2 -39 -8 -45 -14 -7 -8 -5 -9 8 -5 9 4 17 2 17 -3 0 -6
-3 -10 -7 -11 -30 -3 -59 -11 -67 -19 -6 -6 2 -7 20 -3 16 3 42 6 57 5 19 -1
25 2 20 11 -4 7 0 7 10 -2 14 -11 17 -11 17 0 0 10 2 11 8 2 4 -6 14 -11 22
-11 40 3 103 -3 97 -8 -3 -3 -31 -6 -61 -7 -34 -1 -56 -6 -56 -13 0 -8 -15 -8
-55 -1 -61 10 -101 3 -75 -13 11 -7 5 -10 -20 -10 -28 0 -32 3 -20 11 12 9 12
10 -3 5 -11 -3 -31 -9 -45 -14 -47 -13 104 -24 366 -26 155 -2 239 0 230 6 -8
6 -4 7 12 2 14 -5 317 -10 673 -11 l648 -3 -2 115 c-1 112 -2 114 -22 104 -12
-7 -45 -9 -87 -5 -52 5 -69 4 -73 -6 -3 -10 -9 -9 -23 5 -19 18 -19 18 1 12
16 -6 17 -5 5 4 -8 6 -30 11 -47 11 -36 0 -43 13 -15 29 22 12 -119 4 -154 -9
-15 -6 -24 -6 -24 0 0 6 -7 10 -15 10 -21 0 -19 18 3 23 9 2 6 2 -8 0 -102
-16 -110 -16 -105 -1 8 20 -20 27 -143 36 -149 10 -253 7 -263 -9 -7 -12 -9
-12 -9 0 0 12 -3 12 -12 3 -16 -16 -4 -25 35 -30 51 -5 91 -2 101 8 7 7 -6 8
-36 4 -32 -4 -48 -3 -53 6 -6 10 0 12 28 7 20 -3 39 -2 42 3 7 11 65 10 65 -2
0 -4 -8 -8 -17 -9 -14 0 -13 -3 5 -12 19 -8 25 -8 32 3 7 12 10 11 16 -3 4
-10 13 -16 21 -13 8 3 11 1 8 -4 -3 -6 -19 -10 -34 -10 -18 0 -28 -5 -28 -15
0 -12 9 -15 39 -12 21 2 38 0 38 -6 0 -5 11 -6 25 -3 14 4 25 2 25 -4 0 -5
-19 -10 -42 -11 l-43 -1 45 -11 45 -11 -45 -6 c-25 -3 -49 -3 -55 0 -31 19
-61 7 -56 -22 0 -5 -4 -8 -9 -8 -6 0 -10 -7 -10 -15 0 -19 -5 -19 -35 1 -14 9
-25 13 -25 9 0 -4 -7 -2 -15 5 -16 14 -20 31 -6 27 5 -1 9 2 9 7 0 5 6 13 14
17 9 6 9 9 1 9 -16 0 -43 -28 -43 -45 0 -10 -15 -14 -52 -14 -29 0 -69 -2 -88
-4 -41 -5 -62 3 -34 14 17 7 16 8 -6 9 -14 1 -34 3 -44 4 -20 1 -36 26 -17 26
6 0 8 7 5 15 -5 11 1 15 21 15 40 0 65 -17 65 -45 0 -21 5 -25 28 -24 15 1 38
5 52 10 21 7 19 8 -12 4 -21 -2 -38 0 -38 5 0 5 -9 18 -20 28 -21 19 -21 19
17 24 21 3 62 4 90 2 29 -1 55 1 58 6 3 5 -32 7 -77 6 -46 -1 -91 3 -101 8
-13 8 -20 7 -26 -3 -7 -10 -21 -12 -56 -6 -30 4 -50 3 -54 -4 -4 -6 -24 -7
-56 -2 -38 7 -43 9 -20 11 17 1 23 4 15 7 -8 2 -25 9 -37 15 -12 6 -42 8 -67
6 -25 -3 -46 -2 -46 2 0 6 -104 21 -153 21 -9 0 -15 5 -11 10 3 5 -8 8 -25 7
-20 -1 -31 -8 -31 -18 0 -11 -3 -12 -8 -3 -7 12 -53 15 -49 3 4 -11 -14 -10
-36 4 -14 9 -66 17 -152 21 -71 4 -155 8 -186 9 -37 2 -56 0 -56 -8z m387 -41
c0 -8 -2 -15 -4 -15 -2 0 -6 7 -10 15 -3 8 -1 15 4 15 6 0 10 -7 10 -15z
m-253 -1 c-3 -3 -12 -4 -19 -1 -8 3 -5 6 6 6 11 1 17 -2 13 -5z m496 -17 c15
-7 27 -15 27 -18 0 -11 -50 -7 -57 4 -3 6 -1 7 5 3 7 -4 12 -2 12 3 0 10 -47
15 -115 12 -23 -2 -27 0 -15 8 17 12 101 5 143 -12z m824 7 c-3 -3 -12 -4 -19
-1 -8 3 -5 6 6 6 11 1 17 -2 13 -5z m46 -1 c-7 -2 -19 -2 -25 0 -7 3 -2 5 12
5 14 0 19 -2 13 -5z m-1198 -13 c14 -7 8 -8 -20 -3 -22 3 -42 7 -44 9 -9 8 45
2 64 -6z m155 1 c0 -5 -16 -11 -35 -13 -36 -4 -36 6 0 15 32 8 35 7 35 -2z
m350 0 c0 -5 -9 -11 -20 -14 -32 -8 -23 -23 13 -21 26 1 27 0 4 -3 -15 -2 -25
-8 -23 -12 3 -4 -9 -5 -25 -3 -16 2 -28 7 -25 9 3 3 -2 13 -11 21 -15 15 -14
17 8 23 36 10 79 10 79 0z m-123 -8 c-4 -3 -10 -3 -14 0 -3 4 0 7 7 7 7 0 10
-3 7 -7z m871 1 c23 -7 30 -28 11 -39 -20 -13 -58 4 -56 25 1 21 8 23 45 14z
m73 -13 c-8 -5 -20 -7 -28 -4 -21 8 -15 13 15 13 20 0 23 -3 13 -9z m198 3
c25 -5 29 -9 20 -20 -6 -8 -26 -14 -43 -14 -25 0 -32 5 -33 20 -2 21 7 24 56
14z m-1299 -15 c27 -6 50 -15 50 -20 0 -11 -84 0 -88 12 -2 5 -8 9 -13 9 -6 0
-7 -4 -4 -10 4 -6 -6 -10 -22 -10 -27 1 -27 1 -9 15 24 18 22 18 86 4z m107
-6 c-4 -3 -10 -3 -14 0 -3 4 0 7 7 7 7 0 10 -3 7 -7z m230 0 c-4 -3 -10 -3
-14 0 -3 4 0 7 7 7 7 0 10 -3 7 -7z m54 -12 c-11 -7 -9 -10 10 -14 20 -3 18
-5 -8 -6 -17 0 -35 4 -39 11 -4 7 -3 8 4 4 7 -4 12 -2 12 3 0 6 8 11 18 11 14
0 14 -2 3 -9z m-172 -18 l96 -18 -64 -6 c-37 -4 -67 -12 -71 -20 -5 -7 -12
-10 -16 -7 -3 4 2 15 11 25 13 12 14 18 5 21 -7 3 -15 0 -19 -6 -3 -5 -32 -9
-64 -7 -64 3 -91 15 -34 15 20 0 39 5 42 10 8 13 2 13 114 -7z m858 10 c-4 -3
-10 -3 -14 0 -3 4 0 7 7 7 7 0 10 -3 7 -7z m186 -10 c-7 -2 -19 -2 -25 0 -7 3
-2 5 12 5 14 0 19 -2 13 -5z m57 3 c0 -2 -9 -6 -20 -9 -11 -3 -20 -1 -20 4 0
5 9 9 20 9 11 0 20 -2 20 -4z m177 -2 c-3 -3 -12 -4 -19 -1 -8 3 -5 6 6 6 11
1 17 -2 13 -5z m-510 -11 c-4 -3 -10 -3 -14 0 -3 4 0 7 7 7 7 0 10 -3 7 -7z
m120 0 c-4 -3 -10 -3 -14 0 -3 4 0 7 7 7 7 0 10 -3 7 -7z m410 -10 c-4 -3 -10
-3 -14 0 -3 4 0 7 7 7 7 0 10 -3 7 -7z m-1112 -13 c-3 -5 -21 -9 -38 -9 l-32
2 35 7 c19 4 36 8 38 9 2 0 0 -3 -3 -9z m471 -10 c13 0 24 -4 24 -9 0 -6 -12
-6 -31 -1 -18 5 -37 6 -43 3 -6 -4 -4 1 4 11 8 11 16 14 18 7 2 -6 15 -11 28
-11z m227 13 c-7 -2 -19 -2 -25 0 -7 3 -2 5 12 5 14 0 19 -2 13 -5z m364 0
c-4 -3 -10 -3 -14 0 -3 4 0 7 7 7 7 0 10 -3 7 -7z m-1320 -10 c-4 -3 -10 -3
-14 0 -3 4 0 7 7 7 7 0 10 -3 7 -7z m170 0 c-4 -3 -10 -3 -14 0 -3 4 0 7 7 7
7 0 10 -3 7 -7z m620 0 c-4 -3 -10 -3 -14 0 -3 4 0 7 7 7 7 0 10 -3 7 -7z
m-652 -13 c3 -5 1 -10 -4 -10 -6 0 -11 5 -11 10 0 6 2 10 4 10 3 0 8 -4 11
-10z m-228 -6 c-3 -3 -12 -4 -19 -1 -8 3 -5 6 6 6 11 1 17 -2 13 -5z m140 -11
c-4 -3 -7 0 -7 7 0 7 3 10 7 7 3 -4 3 -10 0 -14z m170 11 c-3 -3 -12 -4 -19
-1 -8 3 -5 6 6 6 11 1 17 -2 13 -5z m303 2 c0 -2 -11 -6 -25 -8 -13 -3 -22 -1
-19 3 5 9 44 13 44 5z m887 -3 c-4 -3 -10 -3 -14 0 -3 4 0 7 7 7 7 0 10 -3 7
-7z m30 0 c-4 -3 -10 -3 -14 0 -3 4 0 7 7 7 7 0 10 -3 7 -7z m-1434 -10 c-13
-2 -33 -2 -45 0 -13 2 -3 4 22 4 25 0 35 -2 23 -4z m407 -3 c0 -5 -5 -10 -11
-10 -5 0 -7 5 -4 10 3 6 8 10 11 10 2 0 4 -4 4 -10z m-292 -7 c-10 -2 -26 -2
-35 0 -10 3 -2 5 17 5 19 0 27 -2 18 -5z m389 0 c-4 -3 -10 -3 -14 0 -3 4 0 7
7 7 7 0 10 -3 7 -7z m-497 -13 c24 -8 24 -8 -5 -8 -16 0 -43 4 -60 8 l-30 8
35 0 c19 0 46 -4 60 -8z m370 -7 c0 -5 -36 -9 -80 -10 -45 -1 -80 2 -80 8 0 5
36 9 80 9 44 0 80 -3 80 -7z m213 0 c-7 -2 -19 -2 -25 0 -7 3 -2 5 12 5 14 0
19 -2 13 -5z m-756 -10 c-4 -3 -10 -3 -14 0 -3 4 0 7 7 7 7 0 10 -3 7 -7z
m266 0 c-7 -2 -21 -2 -30 0 -10 3 -4 5 12 5 17 0 24 -2 18 -5z m44 0 c-4 -3
-10 -3 -14 0 -3 4 0 7 7 7 7 0 10 -3 7 -7z m30 0 c-4 -3 -10 -3 -14 0 -3 4 0
7 7 7 7 0 10 -3 7 -7z m370 -7 c9 -9 -119 -6 -142 4 -12 5 10 7 58 5 43 -2 81
-6 84 -9z m-552 -6 c8 -13 -5 -13 -25 0 -13 8 -13 10 2 10 9 0 20 -4 23 -10z
m348 3 c-7 -2 -21 -2 -30 0 -10 3 -4 5 12 5 17 0 24 -2 18 -5z m263 -11 c-16
-2 -32 0 -37 5 -5 5 7 7 29 4 34 -5 35 -6 8 -9z m-549 2 c-3 -3 -12 -4 -19 -1
-8 3 -5 6 6 6 11 1 17 -2 13 -5z m353 -4 c0 -5 -7 -7 -15 -4 -8 4 -15 8 -15
10 0 2 7 4 15 4 8 0 15 -4 15 -10z m253 -7 c-3 -7 -11 -13 -19 -13 -7 0 -11 6
-8 13 3 8 11 14 18 14 8 0 12 -6 9 -14z m60 10 c-7 -2 -21 -2 -30 0 -10 3 -4
5 12 5 17 0 24 -2 18 -5z m24 -10 c-4 -3 -7 0 -7 7 0 7 3 10 7 7 3 -4 3 -10 0
-14z m-259 0 c-10 -2 -28 -2 -40 0 -13 2 -5 4 17 4 22 1 32 -1 23 -4z m-331
-10 c-4 -3 -10 -3 -14 0 -3 4 0 7 7 7 7 0 10 -3 7 -7z m530 0 c-4 -3 -10 -3
-14 0 -3 4 0 7 7 7 7 0 10 -3 7 -7z m30 0 c-4 -3 -10 -3 -14 0 -3 4 0 7 7 7 7
0 10 -3 7 -7z m-250 -9 c-3 -4 -28 -8 -54 -10 -34 -2 -42 0 -28 6 23 10 91 13
82 4z m93 -9 c14 -8 21 -14 15 -14 -5 0 -21 6 -35 14 -14 8 -20 14 -15 14 6 0
21 -6 35 -14z m-463 -2 c-4 -3 -10 -3 -14 0 -3 4 0 7 7 7 7 0 10 -3 7 -7z
m220 0 c-4 -3 -10 -3 -14 0 -3 4 0 7 7 7 7 0 10 -3 7 -7z m366 0 c-7 -2 -19
-2 -25 0 -7 3 -2 5 12 5 14 0 19 -2 13 -5z m-253 -13 c0 -5 -10 -10 -22 -9
-22 0 -22 1 -3 9 11 5 21 9 23 9 1 1 2 -3 2 -9z m-547 -7 c-7 -2 -19 -2 -25 0
-7 3 -2 5 12 5 14 0 19 -2 13 -5z"/>
<path d="M1573 253 c4 -3 10 -3 14 0 3 4 0 7 -7 7 -7 0 -10 -3 -7 -7z"/>
<path d="M2383 233 c4 -3 10 -3 14 0 3 4 0 7 -7 7 -7 0 -10 -3 -7 -7z"/>
<path d="M2633 233 c4 -3 10 -3 14 0 3 4 0 7 -7 7 -7 0 -10 -3 -7 -7z"/>
<path d="M1153 343 c4 -3 10 -3 14 0 3 4 0 7 -7 7 -7 0 -10 -3 -7 -7z"/>
<path d="M1240 340 c0 -5 10 -10 23 -10 18 0 19 2 7 10 -19 13 -30 13 -30 0z"/>
<path d="M1303 333 c4 -3 10 -3 14 0 3 4 0 7 -7 7 -7 0 -10 -3 -7 -7z"/>
<path d="M1690 330 c8 -5 30 -10 49 -10 45 0 37 6 -19 14 -31 4 -40 3 -30 -4z"/>
<path d="M1878 333 c7 -3 16 -2 19 1 4 3 -2 6 -13 5 -11 0 -14 -3 -6 -6z"/>
<path d="M2457 328 c2 -5 35 -8 74 -8 38 0 69 3 69 8 0 4 -33 7 -74 7 -41 0
-72 -3 -69 -7z"/>
<path d="M1473 323 c4 -3 10 -3 14 0 3 4 0 7 -7 7 -7 0 -10 -3 -7 -7z"/>
<path d="M1810 326 c0 -2 9 -6 20 -9 11 -3 20 -1 20 4 0 5 -9 9 -20 9 -11 0
-20 -2 -20 -4z"/>
<path d="M2630 320 c-8 -5 -10 -10 -5 -10 6 0 17 5 25 10 8 5 11 10 5 10 -5 0
-17 -5 -25 -10z"/>
<path d="M1548 313 c7 -3 16 -2 19 1 4 3 -2 6 -13 5 -11 0 -14 -3 -6 -6z"/>
<path d="M1873 313 c4 -3 10 -3 14 0 3 4 0 7 -7 7 -7 0 -10 -3 -7 -7z"/>
<path d="M1653 303 c4 -3 10 -3 14 0 3 4 0 7 -7 7 -7 0 -10 -3 -7 -7z"/>
<path d="M1815 300 c-4 -6 -10 -8 -14 -6 -4 3 -13 1 -21 -4 -10 -6 1 -9 33 -8
39 0 45 3 36 14 -14 17 -25 18 -34 4z"/>
<path d="M2910 297 c0 -10 8 -17 18 -17 9 0 13 4 7 8 -5 4 -13 11 -17 16 -5 5
-8 2 -8 -7z"/>
<path d="M2950 291 c0 -10 39 -36 45 -29 2 2 -8 11 -21 21 -13 10 -24 13 -24
8z"/>
<path d="M1693 283 c9 -2 23 -2 30 0 6 3 -1 5 -18 5 -16 0 -22 -2 -12 -5z"/>
<path d="M1740 280 c0 -5 5 -10 10 -10 6 0 10 5 10 10 0 6 -4 10 -10 10 -5 0
-10 -4 -10 -10z"/>
<path d="M1940 276 c0 -2 18 -6 39 -8 22 -2 37 0 35 4 -5 8 -74 11 -74 4z"/>
<path d="M2096 273 c-3 -4 -6 -12 -6 -20 0 -17 72 -13 78 5 2 6 -1 12 -7 12
-6 0 -11 -5 -11 -11 0 -7 -9 -5 -24 4 -13 9 -26 13 -30 10z"/>
<path d="M1843 263 c4 -3 10 -3 14 0 3 4 0 7 -7 7 -7 0 -10 -3 -7 -7z"/>
<path d="M913 233 c4 -3 10 -3 14 0 3 4 0 7 -7 7 -7 0 -10 -3 -7 -7z"/>
<path d="M2123 223 c9 -2 25 -2 35 0 9 3 1 5 -18 5 -19 0 -27 -2 -17 -5z"/>
<path d="M73 213 c9 -2 25 -2 35 0 9 3 1 5 -18 5 -19 0 -27 -2 -17 -5z"/>
<path d="M2188 213 c6 -2 18 -2 25 0 6 3 1 5 -13 5 -14 0 -19 -2 -12 -5z"/>
<path d="M0 196 c0 -9 6 -16 13 -16 8 0 8 -3 2 -8 -14 -9 -14 -45 0 -54 6 -5
6 -8 -2 -8 -9 0 -13 -17 -13 -53 l0 -54 240 0 c132 -1 240 2 240 7 0 5 -14 14
-30 22 -47 20 -35 30 26 22 41 -5 55 -4 50 5 -4 6 -2 11 3 11 6 0 11 -5 11
-11 0 -17 32 -38 55 -38 11 0 15 3 8 5 -7 3 -10 11 -7 19 4 9 -4 15 -23 18
-15 3 103 4 264 3 161 0 285 2 275 5 -13 5 -12 7 8 10 14 2 -26 4 -88 4 -118
0 -149 6 -122 26 11 8 5 9 -25 5 -22 -3 -65 -7 -95 -8 l-55 -1 60 -8 60 -7
-65 4 c-36 1 -87 3 -113 3 -30 0 -46 4 -43 10 4 6 -5 6 -26 0 -41 -11 -47 -11
-28 1 11 7 1 10 -35 9 -37 0 -45 -3 -30 -9 16 -7 17 -9 3 -9 -9 -1 -20 3 -23
9 -3 5 -23 9 -43 9 l-37 -2 30 -7 c24 -6 21 -7 -14 -4 -24 2 -58 5 -75 5 -19
1 -3 7 39 14 l70 12 -103 0 c-64 -1 -106 3 -110 10 -10 15 -52 -3 -52 -22 0
-22 -13 -19 -39 9 l-23 24 39 6 c21 4 95 5 165 4 69 -2 130 0 134 5 16 15 -10
22 -84 21 -51 -1 -70 2 -57 7 14 6 9 7 -15 3 -19 -3 -39 -10 -45 -15 -5 -5
-25 -8 -45 -8 l-35 2 35 7 35 7 -37 2 c-21 0 -38 -3 -38 -8 0 -12 -37 -20 -47
-10 -5 5 -31 11 -58 14 -28 3 -58 8 -67 11 -12 4 -18 0 -18 -10z m420 -16 c12
-8 12 -10 -5 -10 -11 0 -27 5 -35 10 -12 8 -12 10 5 10 11 0 27 -5 35 -10z
m-342 -27 c-10 -2 -26 -2 -35 0 -10 3 -2 5 17 5 19 0 27 -2 18 -5z m175 -30
c-7 -2 -19 -2 -25 0 -7 3 -2 5 12 5 14 0 19 -2 13 -5z m-70 -28 c51 -7 65 -25
19 -25 -15 0 -37 -7 -49 -15 -15 -11 -28 -12 -45 -6 -22 9 -21 10 8 10 20 1
31 6 31 16 0 8 -7 15 -14 15 -8 0 -12 -4 -8 -9 3 -6 -18 -7 -52 -4 -65 6 -83
13 -35 13 17 0 34 5 37 11 4 5 19 8 33 5 15 -2 48 -8 75 -11z m44 8 c-4 -3
-10 -3 -14 0 -3 4 0 7 7 7 7 0 10 -3 7 -7z m40 -29 c-3 -3 -12 -4 -19 -1 -8 3
-5 6 6 6 11 1 17 -2 13 -5z m85 -4 c26 0 29 -2 18 -15 -10 -12 -10 -15 0 -15
8 0 11 -3 8 -6 -7 -6 -88 33 -88 42 0 3 7 3 16 0 9 -3 29 -6 46 -6z m-107 -20
c3 -5 1 -10 -4 -10 -6 0 -11 5 -11 10 0 6 2 10 4 10 3 0 8 -4 11 -10z m45 0
c8 -5 11 -10 5 -10 -5 0 -17 5 -25 10 -8 5 -10 10 -5 10 6 0 17 -5 25 -10z
m-164 -23 c4 -4 -4 -7 -19 -7 -14 0 -28 4 -31 8 -6 10 40 10 50 -1z m41 6 c-4
-3 -10 -3 -14 0 -3 4 0 7 7 7 7 0 10 -3 7 -7z m250 -10 c-4 -3 -10 -3 -14 0
-3 4 0 7 7 7 7 0 10 -3 7 -7z m-189 -10 c-10 -2 -26 -2 -35 0 -10 3 -2 5 17 5
19 0 27 -2 18 -5z"/>
<path d="M138 203 c6 -2 18 -2 25 0 6 3 1 5 -13 5 -14 0 -19 -2 -12 -5z"/>
<path d="M2123 203 c4 -3 10 -3 14 0 3 4 0 7 -7 7 -7 0 -10 -3 -7 -7z"/>
<path d="M2020 179 c0 -5 5 -7 10 -4 6 3 10 8 10 11 0 2 -4 4 -10 4 -5 0 -10
-5 -10 -11z"/>
<path d="M2133 183 c4 -3 10 -3 14 0 3 4 0 7 -7 7 -7 0 -10 -3 -7 -7z"/>
<path d="M883 173 c9 -2 25 -2 35 0 9 3 1 5 -18 5 -19 0 -27 -2 -17 -5z"/>
<path d="M175 150 c-16 -7 -17 -9 -3 -9 9 -1 20 4 23 9 7 11 7 11 -20 0z"/>
<path d="M268 153 c7 -3 16 -2 19 1 4 3 -2 6 -13 5 -11 0 -14 -3 -6 -6z"/>
<path d="M333 153 c4 -3 10 -3 14 0 3 4 0 7 -7 7 -7 0 -10 -3 -7 -7z"/>
<path d="M948 133 c23 -2 59 -2 80 0 20 2 1 4 -43 4 -44 0 -61 -2 -37 -4z"/>
<path d="M1170 110 c-9 -6 -10 -10 -3 -10 6 0 15 5 18 10 8 12 4 12 -15 0z"/>
<path d="M1248 63 c6 -2 18 -2 25 0 6 3 1 5 -13 5 -14 0 -19 -2 -12 -5z"/>
<path d="M610 52 c0 -5 7 -13 16 -16 21 -8 164 -6 239 4 49 6 37 7 -65 7 -69
0 -140 3 -157 7 -21 5 -33 4 -33 -2z"/>
<path d="M953 43 c15 -2 39 -2 55 0 15 2 2 4 -28 4 -30 0 -43 -2 -27 -4z"/>
<path d="M513 23 c9 -2 23 -2 30 0 6 3 -1 5 -18 5 -16 0 -22 -2 -12 -5z"/>
<path d="M600 10 l-45 -8 52 1 c29 0 50 4 47 9 -3 4 -6 7 -7 6 -1 0 -22 -4
-47 -8z"/>
<path d="M815 10 c75 -10 160 -12 152 -4 -3 4 -53 8 -109 9 -87 3 -94 2 -43
-5z"/>
<path d="M503 3 c4 -3 10 -3 14 0 3 4 0 7 -7 7 -7 0 -10 -3 -7 -7z"/>
</g>
</svg>
