<?xml version="1.0" standalone="no"?>
<!DOCTYPE svg PUBLIC "-//W3C//DTD SVG 20010904//EN"
 "http://www.w3.org/TR/2001/REC-SVG-20010904/DTD/svg10.dtd">
<svg version="1.0" xmlns="http://www.w3.org/2000/svg"
 width="256.000000pt" height="256.000000pt" viewBox="0 0 256.000000 256.000000"
 preserveAspectRatio="xMidYMid meet">
<metadata>
Created by potrace 1.10, written by Peter Selinger 2001-2011
</metadata>
<g transform="translate(0.000000,256.000000) scale(0.100000,-0.100000)"
fill="#000000" stroke="none">
<path d="M1140 2464 c-111 -23 -224 -86 -311 -173 -251 -252 -252 -650 0 -901
253 -252 651 -253 901 -1 253 254 253 648 0 902 -155 156 -374 220 -590 173z"/>
<path d="M662 1275 c-64 -27 -178 -109 -243 -174 -110 -110 -188 -246 -230
-401 -27 -98 -38 -375 -18 -448 17 -61 96 -142 155 -160 30 -9 180 -12 550
-12 l508 0 -56 57 c-220 228 -271 568 -123 839 l33 62 -76 12 c-151 24 -300
95 -427 204 -38 33 -41 34 -73 21z"/>
<path d="M1725 1188 c-154 -29 -314 -154 -386 -304 -151 -312 4 -666 341 -780
76 -26 244 -26 320 0 187 63 313 189 376 376 26 76 26 244 0 320 -53 157 -152
273 -289 339 -120 58 -234 73 -362 49z m170 -333 c21 -20 25 -34 25 -80 l0
-55 55 0 c67 0 105 -29 105 -80 0 -51 -38 -80 -105 -80 l-55 0 0 -55 c0 -67
-29 -105 -80 -105 -51 0 -80 38 -80 105 l0 55 -55 0 c-67 0 -105 29 -105 80 0
51 38 80 105 80 l55 0 0 55 c0 67 29 105 80 105 19 0 40 -9 55 -25z"/>
</g>
</svg>
