<?xml version="1.0" standalone="no"?>
<!DOCTYPE svg PUBLIC "-//W3C//DTD SVG 20010904//EN"
 "http://www.w3.org/TR/2001/REC-SVG-20010904/DTD/svg10.dtd">
<svg version="1.0" xmlns="http://www.w3.org/2000/svg"
 width="768.000000pt" height="768.000000pt" viewBox="0 0 768.000000 768.000000"
 preserveAspectRatio="xMidYMid meet">
<metadata>
Created by potrace 1.10, written by Peter Selinger 2001-2011
</metadata>
<g transform="translate(0.000000,768.000000) scale(0.100000,-0.100000)"
fill="#000000" stroke="none">
<path d="M3545 7671 c8 -13 -17 -19 -120 -26 -49 -4 -121 -13 -158 -21 -38 -8
-82 -14 -100 -14 -39 0 -221 -42 -328 -75 -26 -8 -55 -15 -65 -15 -11 0 -50
-12 -89 -26 -38 -14 -85 -29 -104 -34 -18 -5 -38 -13 -44 -19 -6 -6 -19 -11
-29 -11 -9 0 -32 -6 -50 -14 -18 -8 -53 -22 -78 -31 -25 -10 -99 -44 -165 -75
-66 -32 -141 -67 -167 -80 -26 -12 -62 -32 -80 -44 -18 -12 -40 -25 -48 -29
-8 -4 -28 -16 -45 -27 -16 -11 -39 -24 -50 -30 -11 -6 -33 -19 -50 -30 -16
-11 -37 -23 -45 -27 -32 -15 -378 -279 -435 -332 -77 -72 -274 -269 -346 -346
-53 -57 -317 -403 -332 -435 -4 -8 -16 -28 -27 -45 -11 -16 -24 -39 -30 -50
-6 -11 -19 -33 -30 -50 -11 -16 -23 -37 -27 -45 -4 -8 -17 -30 -29 -48 -12
-18 -32 -54 -44 -80 -13 -26 -48 -101 -80 -167 -31 -66 -65 -140 -75 -165 -9
-25 -23 -60 -31 -78 -8 -18 -14 -41 -14 -50 0 -10 -5 -23 -11 -29 -6 -6 -14
-26 -19 -44 -5 -19 -20 -65 -34 -104 -14 -38 -26 -78 -26 -89 0 -10 -7 -39
-15 -65 -34 -110 -75 -289 -75 -332 0 -19 -5 -52 -10 -74 -6 -22 -17 -105 -25
-185 -28 -274 -14 -823 25 -985 5 -22 10 -55 10 -74 0 -43 41 -222 75 -332 8
-26 15 -55 15 -65 0 -11 12 -50 26 -89 14 -38 29 -85 34 -104 5 -18 13 -38 19
-44 6 -6 11 -19 11 -29 0 -9 6 -32 14 -50 8 -18 22 -53 31 -78 10 -25 44 -99
75 -165 32 -66 67 -141 80 -167 12 -26 32 -62 44 -80 12 -18 25 -40 29 -48 4
-8 16 -28 27 -45 11 -16 24 -39 30 -50 6 -11 19 -33 30 -50 11 -16 23 -37 27
-45 15 -32 279 -378 332 -435 72 -77 269 -274 346 -346 57 -53 403 -317 435
-332 8 -4 29 -16 45 -27 17 -11 39 -24 50 -30 11 -6 34 -19 50 -30 17 -11 37
-23 45 -27 8 -4 30 -17 48 -29 18 -12 54 -32 80 -44 26 -13 101 -48 167 -80
66 -31 140 -65 165 -75 25 -9 60 -23 78 -31 18 -8 41 -14 50 -14 10 0 23 -5
29 -11 6 -6 26 -14 44 -19 19 -5 66 -20 104 -34 39 -14 78 -26 89 -26 10 0 39
-7 65 -15 110 -34 289 -75 332 -75 19 0 52 -5 74 -10 214 -52 956 -52 1170 0
22 5 55 10 74 10 43 0 222 41 332 75 26 8 55 15 65 15 11 0 51 12 89 26 39 14
85 29 104 34 18 5 38 13 44 19 6 6 19 11 29 11 9 0 32 6 50 14 18 8 53 22 78
31 25 10 99 44 165 75 66 32 141 67 167 80 26 12 62 32 80 44 18 12 40 25 48
29 8 4 29 16 45 27 17 11 39 24 50 30 11 6 34 19 50 30 17 11 37 23 45 27 32
15 378 279 435 332 77 72 274 269 346 346 53 57 317 403 332 435 4 8 16 29 27
45 11 17 24 39 30 50 6 11 19 34 30 50 11 17 23 37 27 45 4 8 17 30 29 48 12
18 32 54 44 80 13 26 48 101 80 167 31 66 65 140 75 165 9 25 23 60 31 78 8
18 14 41 14 50 0 10 5 23 11 29 6 6 14 26 19 44 5 19 20 66 34 104 14 39 26
78 26 89 0 10 7 39 15 65 33 107 75 289 75 328 0 18 6 62 14 100 8 37 17 109
21 158 7 103 13 128 26 120 5 -4 9 108 9 285 0 177 -4 289 -9 285 -13 -8 -19
17 -26 120 -4 50 -13 121 -21 158 -8 38 -14 82 -14 100 0 39 -42 221 -75 328
-8 26 -15 55 -15 65 0 11 -12 51 -26 89 -14 39 -29 85 -34 104 -5 18 -13 38
-19 44 -6 6 -11 19 -11 29 0 9 -6 32 -14 50 -8 18 -22 53 -31 78 -10 25 -44
99 -75 165 -32 66 -67 141 -80 167 -12 26 -32 62 -44 80 -12 18 -25 40 -29 48
-4 8 -16 29 -27 45 -11 17 -24 39 -30 50 -6 11 -19 34 -30 50 -11 17 -23 37
-27 45 -15 32 -279 378 -332 435 -72 77 -269 274 -346 346 -57 53 -403 317
-435 332 -8 4 -28 16 -45 27 -16 11 -39 24 -50 30 -11 6 -33 19 -50 30 -16 11
-37 23 -45 27 -8 4 -30 17 -48 29 -18 12 -54 32 -80 44 -26 13 -101 48 -167
80 -66 31 -140 65 -165 75 -25 9 -60 23 -78 31 -18 8 -41 14 -50 14 -10 0 -23
5 -29 11 -6 6 -26 14 -44 19 -19 5 -65 20 -104 34 -38 14 -78 26 -89 26 -10 0
-39 7 -65 15 -107 33 -289 75 -328 75 -18 0 -62 6 -100 14 -37 8 -108 17 -158
21 -103 7 -128 13 -120 26 4 5 -108 9 -285 9 -177 0 -289 -4 -285 -9z m-362
-2415 c18 -8 39 -17 47 -20 8 -3 29 -15 45 -26 17 -11 37 -23 45 -27 8 -4 41
-25 75 -48 33 -23 67 -44 75 -48 8 -4 29 -16 45 -27 17 -11 37 -23 45 -27 8
-4 41 -25 75 -48 33 -23 67 -44 75 -48 8 -4 29 -16 45 -27 17 -11 37 -23 45
-27 8 -4 41 -25 75 -48 33 -23 67 -44 75 -48 8 -4 29 -16 45 -27 17 -11 37
-23 45 -27 8 -4 41 -25 75 -48 33 -23 67 -44 75 -48 8 -4 29 -16 45 -27 17
-11 37 -23 45 -27 8 -4 41 -25 75 -48 33 -23 67 -44 75 -48 8 -4 29 -16 45
-27 17 -11 37 -23 45 -27 8 -4 41 -25 75 -48 33 -23 67 -44 75 -48 8 -4 29
-16 45 -27 17 -11 37 -23 45 -27 8 -4 41 -25 75 -48 33 -23 67 -44 75 -48 8
-4 29 -16 45 -27 17 -11 37 -23 45 -27 8 -4 43 -26 77 -50 35 -24 67 -43 71
-43 15 0 80 -75 101 -117 28 -56 28 -130 0 -186 -21 -42 -86 -117 -101 -117
-4 0 -36 -19 -71 -43 -34 -24 -69 -46 -77 -50 -8 -4 -28 -16 -45 -27 -16 -11
-37 -23 -45 -27 -8 -4 -42 -25 -75 -48 -34 -23 -67 -44 -75 -48 -8 -4 -28 -16
-45 -27 -16 -11 -37 -23 -45 -27 -8 -4 -42 -25 -75 -48 -34 -23 -67 -44 -75
-48 -8 -4 -28 -16 -45 -27 -16 -11 -37 -23 -45 -27 -8 -4 -42 -25 -75 -48 -34
-23 -67 -44 -75 -48 -8 -4 -28 -16 -45 -27 -16 -11 -37 -23 -45 -27 -8 -4 -42
-25 -75 -48 -34 -23 -67 -44 -75 -48 -8 -4 -28 -16 -45 -27 -16 -11 -37 -23
-45 -27 -8 -4 -42 -25 -75 -48 -34 -23 -67 -44 -75 -48 -8 -4 -28 -16 -45 -27
-16 -11 -37 -23 -45 -27 -8 -4 -42 -25 -75 -48 -34 -23 -67 -44 -75 -48 -8 -4
-28 -16 -45 -27 -16 -11 -37 -23 -45 -27 -8 -4 -42 -25 -75 -48 -34 -23 -67
-44 -75 -48 -8 -4 -28 -16 -45 -27 -16 -11 -37 -23 -45 -26 -8 -3 -29 -12 -47
-20 -68 -30 -172 -6 -237 54 -16 15 -39 50 -52 77 l-24 50 0 1245 c0 1231 1
1246 21 1290 27 60 64 98 124 126 57 27 122 31 168 10z"/>
</g>
</svg>
