<?xml version="1.0" standalone="no"?>
<!DOCTYPE svg PUBLIC "-//W3C//DTD SVG 20010904//EN"
 "http://www.w3.org/TR/2001/REC-SVG-20010904/DTD/svg10.dtd">
<svg version="1.0" xmlns="http://www.w3.org/2000/svg"
 width="256.000000pt" height="256.000000pt" viewBox="0 0 256.000000 256.000000"
 preserveAspectRatio="xMidYMid meet">
<metadata>
Created by potrace 1.10, written by Peter Selinger 2001-2011
</metadata>
<g transform="translate(0.000000,256.000000) scale(0.100000,-0.100000)"
fill="#000000" stroke="none">
<path d="M1116 2549 c-483 -67 -895 -404 -1046 -857 -50 -152 -64 -242 -64
-412 0 -171 14 -260 65 -415 121 -362 433 -673 797 -795 152 -50 242 -64 412
-64 274 0 482 62 710 212 277 183 475 480 547 822 24 117 24 363 0 480 -57
271 -178 492 -371 678 -182 175 -391 286 -641 337 -96 20 -314 28 -409 14z
m281 -545 c43 -9 107 -29 143 -45 69 -31 190 -109 190 -121 0 -11 -100 -187
-109 -193 -4 -2 -30 14 -56 36 -92 76 -186 109 -310 110 -103 0 -163 -14 -245
-57 -162 -85 -280 -277 -280 -454 0 -177 119 -371 279 -453 83 -43 145 -58
235 -58 137 0 254 45 351 135 47 44 125 154 125 178 0 4 -38 9 -84 10 l-84 3
144 250 c80 138 149 256 153 264 5 9 57 -71 159 -249 84 -144 152 -264 152
-266 0 -2 -44 -4 -98 -4 l-99 0 -12 -42 c-32 -109 -128 -249 -230 -334 -315
-264 -785 -220 -1048 97 -59 72 -130 218 -148 304 -19 90 -19 240 0 330 18 86
89 232 148 304 177 213 455 311 724 255z"/>
</g>
</svg>
