<?xml version="1.0" standalone="no"?>
<!DOCTYPE svg PUBLIC "-//W3C//DTD SVG 20010904//EN"
 "http://www.w3.org/TR/2001/REC-SVG-20010904/DTD/svg10.dtd">
<svg version="1.0" xmlns="http://www.w3.org/2000/svg"
 width="768.000000pt" height="768.000000pt" viewBox="0 0 768.000000 768.000000"
 preserveAspectRatio="xMidYMid meet">
<metadata>
Created by potrace 1.10, written by Peter Selinger 2001-2011
</metadata>
<g transform="translate(0.000000,768.000000) scale(0.100000,-0.100000)"
fill="#000000" stroke="none">
<path d="M3120 7665 c0 -9 -14 -16 -37 -20 -21 -3 -50 -13 -65 -21 -14 -8 -31
-14 -36 -14 -24 0 -141 -79 -198 -135 -98 -95 -164 -218 -214 -400 -5 -16 -14
-46 -21 -65 -6 -19 -17 -51 -24 -70 -7 -19 -18 -51 -25 -70 -6 -19 -15 -48
-19 -65 l-7 -30 -734 -6 c-801 -6 -765 -3 -896 -65 -106 -49 -252 -177 -285
-249 -5 -11 -19 -38 -32 -60 -34 -62 -56 -141 -67 -247 -13 -130 -13 -449 1
-543 10 -66 16 -80 48 -111 24 -24 57 -43 96 -55 58 -18 163 -19 3243 -19
3029 0 3184 1 3215 18 132 72 147 117 147 436 -1 355 -31 484 -149 634 -71 91
-141 147 -245 196 -130 62 -96 59 -896 65 l-734 6 -7 30 c-4 17 -13 46 -19 65
-7 19 -18 51 -25 70 -7 19 -18 51 -24 70 -7 19 -16 49 -21 65 -25 90 -88 240
-124 295 -86 130 -260 253 -388 275 -24 4 -38 11 -38 20 0 13 -95 15 -710 15
-615 0 -710 -2 -710 -15z m1372 -465 c75 -33 122 -95 148 -195 9 -32 24 -77
46 -135 8 -19 15 -48 16 -65 l3 -30 -875 0 -875 0 3 30 c1 17 8 46 16 65 23
60 37 104 45 135 15 58 62 143 89 161 80 55 48 52 718 53 598 1 623 0 666 -19z"/>
<path d="M966 4932 c-3 -5 -1 -62 5 -128 33 -390 39 -471 50 -584 6 -69 15
-179 19 -245 8 -123 22 -296 41 -490 6 -60 14 -166 19 -235 4 -69 13 -181 19
-250 7 -69 18 -201 26 -295 8 -93 19 -228 26 -300 6 -71 15 -182 19 -245 4
-63 13 -173 19 -245 7 -71 18 -206 26 -300 8 -93 19 -224 25 -290 6 -66 15
-183 20 -260 5 -77 14 -174 19 -215 6 -41 11 -107 11 -146 0 -109 37 -265 84
-354 44 -83 157 -211 219 -246 65 -37 157 -78 204 -90 81 -21 3945 -21 4026 0
144 38 273 125 364 246 94 126 129 236 143 445 4 66 13 179 19 250 7 72 18
207 26 300 8 94 19 226 26 295 6 69 15 181 19 250 5 69 13 175 19 235 19 194
33 367 41 490 4 66 13 176 19 245 7 69 18 202 26 295 8 94 19 229 26 300 6 72
15 182 19 245 4 63 13 174 19 245 7 72 18 207 26 300 8 94 19 224 25 290 12
127 31 396 34 455 l1 35 -2862 3 c-1574 1 -2864 -2 -2867 -6z m1610 -466 c30
-14 64 -41 85 -67 l34 -43 0 -1666 0 -1666 -34 -43 c-40 -50 -121 -91 -181
-91 -60 0 -141 41 -181 91 l-34 43 0 1666 0 1666 34 43 c67 85 180 112 277 67z
m1350 0 c30 -14 64 -41 85 -67 l34 -43 0 -1666 0 -1666 -34 -43 c-40 -50 -121
-91 -181 -91 -60 0 -141 41 -181 91 l-34 43 0 1666 0 1666 34 43 c67 85 180
112 277 67z m1337 6 c62 -34 86 -54 109 -90 l23 -37 0 -1660 0 -1661 -34 -43
c-40 -50 -121 -91 -181 -91 -60 0 -141 41 -181 91 l-34 43 0 1661 0 1660 23
37 c57 91 192 135 275 90z"/>
</g>
</svg>
