<?xml version="1.0" standalone="no"?>
<!DOCTYPE svg PUBLIC "-//W3C//DTD SVG 20010904//EN"
 "http://www.w3.org/TR/2001/REC-SVG-20010904/DTD/svg10.dtd">
<svg version="1.0" xmlns="http://www.w3.org/2000/svg"
 width="256.000000pt" height="256.000000pt" viewBox="0 0 256.000000 256.000000"
 preserveAspectRatio="xMidYMid meet">
<metadata>
Created by potrace 1.10, written by Peter Selinger 2001-2011
</metadata>
<g transform="translate(0.000000,256.000000) scale(0.100000,-0.100000)"
fill="#000000" stroke="none">
<path d="M1116 2549 c-484 -67 -895 -403 -1046 -857 -50 -152 -64 -242 -64
-412 0 -170 14 -260 64 -412 122 -366 432 -676 798 -798 152 -50 242 -64 412
-64 170 0 260 14 412 64 366 122 676 432 798 798 50 152 64 242 64 412 0 170
-14 260 -64 412 -103 307 -345 584 -641 734 -85 42 -217 87 -324 109 -96 20
-314 28 -409 14z m245 -549 c186 -35 330 -184 361 -374 38 -227 -128 -463
-353 -505 l-44 -8 50 -7 c99 -15 211 -47 284 -81 188 -90 348 -249 434 -433
l31 -66 -74 -69 c-95 -89 -168 -138 -294 -198 -300 -142 -652 -142 -952 0
-126 60 -199 109 -294 198 l-74 69 31 66 c86 184 246 343 434 433 73 34 185
66 284 81 l50 7 -44 8 c-225 42 -391 278 -353 505 42 252 277 420 523 374z"/>
</g>
</svg>
